<?xml version="1.0" standalone="no"?>
 <!DOCTYPE svg PUBLIC "-//W3C//DTD SVG 1.1//EN" 
 "http://www.w3.org/Graphics/SVG/1.1/DTD/svg11.dtd"> 
<svg
  xmlns:svg="http://www.w3.org/2000/svg"
  xmlns="http://www.w3.org/2000/svg"
  xmlns:xlink="http://www.w3.org/1999/xlink"
  version="1.1"
  width="99.9998mm" height="70.0024mm" viewBox="0.0000 0.0000 99.9998 70.0024">
<title>SVG Image created as sec_1_04_04_lin_reg.svg date 2024/03/01 15:49:31 </title>
  <desc>Image generated by Eeschema-SVG </desc>
<g style="fill:#000000; fill-opacity:1.0000;stroke:#000000; stroke-opacity:1.0000;
stroke-linecap:round; stroke-linejoin:round;"
 transform="translate(0 0) scale(1 1)">
</g>
<g style="fill:#000000; fill-opacity:0.0; 
stroke:#000000; stroke-width:0.1524; stroke-opacity:1; 
stroke-linecap:round; stroke-linejoin:round;">
</g>
<g style="fill:#000000; fill-opacity:0.0; 
stroke:#000000; stroke-width:0.1588; stroke-opacity:1; 
stroke-linecap:round; stroke-linejoin:round;">
</g>
<g style="fill:#000000; fill-opacity:0.0; 
stroke:#000000; stroke-width:0.1524; stroke-opacity:1; 
stroke-linecap:round; stroke-linejoin:round;">
</g>
<g style="fill:#000000; fill-opacity:0.0; 
stroke:#000000; stroke-width:0.1588; stroke-opacity:1; 
stroke-linecap:round; stroke-linejoin:round;">
</g>
<g style="fill:#000000; fill-opacity:0.0; 
stroke:#000000; stroke-width:0.1524; stroke-opacity:1; 
stroke-linecap:round; stroke-linejoin:round;">
</g>
<g style="fill:#000000; fill-opacity:0.0; 
stroke:#000000; stroke-width:0.1588; stroke-opacity:1; 
stroke-linecap:round; stroke-linejoin:round;">
</g>
<g style="fill:#000000; fill-opacity:0.0; 
stroke:#000000; stroke-width:0.1524; stroke-opacity:1; 
stroke-linecap:round; stroke-linejoin:round;">
</g>
<g style="fill:#000000; fill-opacity:0.0; 
stroke:#000000; stroke-width:0.1588; stroke-opacity:1; 
stroke-linecap:round; stroke-linejoin:round;">
</g>
<g style="fill:#000000; fill-opacity:0.0; 
stroke:#000000; stroke-width:0.1524; stroke-opacity:1; 
stroke-linecap:round; stroke-linejoin:round;">
</g>
<g style="fill:#000000; fill-opacity:0.0; 
stroke:#000000; stroke-width:0.1588; stroke-opacity:1; 
stroke-linecap:round; stroke-linejoin:round;">
</g>
<g style="fill:#000000; fill-opacity:0.0; 
stroke:#000000; stroke-width:0.1524; stroke-opacity:1; 
stroke-linecap:round; stroke-linejoin:round;">
</g>
<g style="fill:#000000; fill-opacity:0.0; 
stroke:#000000; stroke-width:0.1588; stroke-opacity:1; 
stroke-linecap:round; stroke-linejoin:round;">
</g>
<g style="fill:#000000; fill-opacity:0.0; 
stroke:#000000; stroke-width:0.1524; stroke-opacity:1; 
stroke-linecap:round; stroke-linejoin:round;">
</g>
<g style="fill:#000000; fill-opacity:0.0; 
stroke:#000000; stroke-width:0.1588; stroke-opacity:1; 
stroke-linecap:round; stroke-linejoin:round;">
</g>
<g style="fill:#000000; fill-opacity:0.0; 
stroke:#000000; stroke-width:0.1524; stroke-opacity:1; 
stroke-linecap:round; stroke-linejoin:round;">
</g>
<g style="fill:#000000; fill-opacity:0.0; 
stroke:#000000; stroke-width:0.1588; stroke-opacity:1; 
stroke-linecap:round; stroke-linejoin:round;">
</g>
<g style="fill:#000000; fill-opacity:0.0; 
stroke:#000000; stroke-width:0.1524; stroke-opacity:1; 
stroke-linecap:round; stroke-linejoin:round;">
</g>
<g style="fill:#000000; fill-opacity:0.0; 
stroke:#000000; stroke-width:0.1588; stroke-opacity:1; 
stroke-linecap:round; stroke-linejoin:round;">
</g>
<g style="fill:#000000; fill-opacity:0.0; 
stroke:#000000; stroke-width:0.1524; stroke-opacity:1; 
stroke-linecap:round; stroke-linejoin:round;">
</g>
<g style="fill:#000000; fill-opacity:0.0; 
stroke:#000000; stroke-width:0.1588; stroke-opacity:1; 
stroke-linecap:round; stroke-linejoin:round;">
</g>
<g style="fill:#000000; fill-opacity:0.0; 
stroke:#000000; stroke-width:0.1524; stroke-opacity:1; 
stroke-linecap:round; stroke-linejoin:round;">
</g>
<g style="fill:#000000; fill-opacity:0.0; 
stroke:#000000; stroke-width:0.1588; stroke-opacity:1; 
stroke-linecap:round; stroke-linejoin:round;">
</g>
<g style="fill:#000000; fill-opacity:0.0; 
stroke:#000000; stroke-width:0.1524; stroke-opacity:1; 
stroke-linecap:round; stroke-linejoin:round;">
</g>
<g style="fill:#000000; fill-opacity:0.0; 
stroke:#000000; stroke-width:0.1588; stroke-opacity:1; 
stroke-linecap:round; stroke-linejoin:round;">
</g>
<g style="fill:#000000; fill-opacity:0.0; 
stroke:#000000; stroke-width:0.1524; stroke-opacity:1; 
stroke-linecap:round; stroke-linejoin:round;">
<g >
<path style="fill:#000000; fill-opacity:0.0; 
stroke:#000000; stroke-width:0.1524; stroke-opacity:1; 
stroke-linecap:round; stroke-linejoin:round;fill:none"
d="M 77.4700,56.3880
76.4540,55.8800
78.4860,54.8640
76.4540,53.8480
78.4860,52.8320
76.4540,51.8160
78.4860,50.8000
77.4700,50.2920
" /> 
<path d="M77.4700 50.2500
L77.4700 49.5300
" />
<path d="M77.4700 56.4300
L77.4700 57.1500
" />
<text x="84.4754" y="52.7050"
textLength="8.9117" font-size="1.6933" lengthAdjust="spacingAndGlyphs"
text-anchor="middle" opacity="0">RLOWER1</text>
<g class="stroked-text"><desc>RLOWER1</desc>
<path d="M81.1492 52.6495
L80.7259 52.0448
" />
<path d="M80.4235 52.6495
L80.4235 51.3795
" />
<path d="M80.4235 51.3795
L80.9073 51.3795
" />
<path d="M80.9073 51.3795
L81.0283 51.4400
" />
<path d="M81.0283 51.4400
L81.0888 51.5005
" />
<path d="M81.0888 51.5005
L81.1492 51.6214
" />
<path d="M81.1492 51.6214
L81.1492 51.8029
" />
<path d="M81.1492 51.8029
L81.0888 51.9238
" />
<path d="M81.0888 51.9238
L81.0283 51.9843
" />
<path d="M81.0283 51.9843
L80.9073 52.0448
" />
<path d="M80.9073 52.0448
L80.4235 52.0448
" />
<path d="M82.2983 52.6495
L81.6935 52.6495
" />
<path d="M81.6935 52.6495
L81.6935 51.3795
" />
<path d="M82.9635 51.3795
L83.2054 51.3795
" />
<path d="M83.2054 51.3795
L83.3264 51.4400
" />
<path d="M83.3264 51.4400
L83.4473 51.5610
" />
<path d="M83.4473 51.5610
L83.5078 51.8029
" />
<path d="M83.5078 51.8029
L83.5078 52.2262
" />
<path d="M83.5078 52.2262
L83.4473 52.4681
" />
<path d="M83.4473 52.4681
L83.3264 52.5891
" />
<path d="M83.3264 52.5891
L83.2054 52.6495
" />
<path d="M83.2054 52.6495
L82.9635 52.6495
" />
<path d="M82.9635 52.6495
L82.8426 52.5891
" />
<path d="M82.8426 52.5891
L82.7216 52.4681
" />
<path d="M82.7216 52.4681
L82.6612 52.2262
" />
<path d="M82.6612 52.2262
L82.6612 51.8029
" />
<path d="M82.6612 51.8029
L82.7216 51.5610
" />
<path d="M82.7216 51.5610
L82.8426 51.4400
" />
<path d="M82.8426 51.4400
L82.9635 51.3795
" />
<path d="M83.9312 51.3795
L84.2336 52.6495
" />
<path d="M84.2336 52.6495
L84.4755 51.7424
" />
<path d="M84.4755 51.7424
L84.7174 52.6495
" />
<path d="M84.7174 52.6495
L85.0198 51.3795
" />
<path d="M85.5035 51.9843
L85.9269 51.9843
" />
<path d="M86.1083 52.6495
L85.5035 52.6495
" />
<path d="M85.5035 52.6495
L85.5035 51.3795
" />
<path d="M85.5035 51.3795
L86.1083 51.3795
" />
<path d="M87.3782 52.6495
L86.9549 52.0448
" />
<path d="M86.6525 52.6495
L86.6525 51.3795
" />
<path d="M86.6525 51.3795
L87.1363 51.3795
" />
<path d="M87.1363 51.3795
L87.2573 51.4400
" />
<path d="M87.2573 51.4400
L87.3178 51.5005
" />
<path d="M87.3178 51.5005
L87.3782 51.6214
" />
<path d="M87.3782 51.6214
L87.3782 51.8029
" />
<path d="M87.3782 51.8029
L87.3178 51.9238
" />
<path d="M87.3178 51.9238
L87.2573 51.9843
" />
<path d="M87.2573 51.9843
L87.1363 52.0448
" />
<path d="M87.1363 52.0448
L86.6525 52.0448
" />
<path d="M88.5878 52.6495
L87.8621 52.6495
" />
<path d="M88.2249 52.6495
L88.2249 51.3795
" />
<path d="M88.2249 51.3795
L88.1040 51.5610
" />
<path d="M88.1040 51.5610
L87.9830 51.6819
" />
<path d="M87.9830 51.6819
L87.8621 51.7424
" />
</g><text x="81.8447" y="55.2450"
textLength="3.6503" font-size="1.6933" lengthAdjust="spacingAndGlyphs"
text-anchor="middle" opacity="0">10k</text>
<g class="stroked-text"><desc>10k</desc>
<path d="M81.0888 55.1895
L80.3631 55.1895
" />
<path d="M80.7259 55.1895
L80.7259 53.9195
" />
<path d="M80.7259 53.9195
L80.6050 54.1010
" />
<path d="M80.6050 54.1010
L80.4840 54.2219
" />
<path d="M80.4840 54.2219
L80.3631 54.2824
" />
<path d="M81.8749 53.9195
L81.9959 53.9195
" />
<path d="M81.9959 53.9195
L82.1168 53.9800
" />
<path d="M82.1168 53.9800
L82.1773 54.0405
" />
<path d="M82.1773 54.0405
L82.2378 54.1614
" />
<path d="M82.2378 54.1614
L82.2983 54.4033
" />
<path d="M82.2983 54.4033
L82.2983 54.7057
" />
<path d="M82.2983 54.7057
L82.2378 54.9476
" />
<path d="M82.2378 54.9476
L82.1773 55.0686
" />
<path d="M82.1773 55.0686
L82.1168 55.1291
" />
<path d="M82.1168 55.1291
L81.9959 55.1895
" />
<path d="M81.9959 55.1895
L81.8749 55.1895
" />
<path d="M81.8749 55.1895
L81.7540 55.1291
" />
<path d="M81.7540 55.1291
L81.6935 55.0686
" />
<path d="M81.6935 55.0686
L81.6330 54.9476
" />
<path d="M81.6330 54.9476
L81.5726 54.7057
" />
<path d="M81.5726 54.7057
L81.5726 54.4033
" />
<path d="M81.5726 54.4033
L81.6330 54.1614
" />
<path d="M81.6330 54.1614
L81.6935 54.0405
" />
<path d="M81.6935 54.0405
L81.7540 53.9800
" />
<path d="M81.7540 53.9800
L81.8749 53.9195
" />
<path d="M82.8425 55.1895
L82.8425 53.9195
" />
<path d="M82.9635 54.7057
L83.3263 55.1895
" />
<path d="M83.3263 54.3429
L82.8425 54.8267
" />
</g></g>
</g>
<g style="fill:#000000; fill-opacity:0.0; 
stroke:#000000; stroke-width:0.1524; stroke-opacity:1; 
stroke-linecap:round; stroke-linejoin:round;">
<g >
</g>
<g style="fill:#000000; fill-opacity:0.0; 
stroke:#000000; stroke-width:0.2540; stroke-opacity:1; 
stroke-linecap:round; stroke-linejoin:round;">
<path style="fill:#000000; fill-opacity:0.0; 
stroke:#000000; stroke-width:0.2540; stroke-opacity:1; 
stroke-linecap:round; stroke-linejoin:round;fill:none"
d="M 66.8020,36.5760
66.8020,32.1310
" /> 
<path style="fill:#000000; fill-opacity:0.0; 
stroke:#000000; stroke-width:0.2540; stroke-opacity:1; 
stroke-linecap:round; stroke-linejoin:round;fill:none"
d="M 65.2780,36.5760
65.2780,32.1310
" /> 
</g>
<g style="fill:#000000; fill-opacity:0.0; 
stroke:#000000; stroke-width:0.1524; stroke-opacity:1; 
stroke-linecap:round; stroke-linejoin:round;">
<path d="M65.2000 34.2900
L63.5000 34.2900
" />
<path d="M66.8800 34.2900
L68.5800 34.2900
" />
<text x="66.0399" y="28.5750"
textLength="3.7713" font-size="1.6933" lengthAdjust="spacingAndGlyphs"
text-anchor="middle" opacity="0">CF1</text>
<g class="stroked-text"><desc>CF1</desc>
<path d="M65.2839 28.3986
L65.2235 28.4591
" />
<path d="M65.2235 28.4591
L65.0420 28.5195
" />
<path d="M65.0420 28.5195
L64.9211 28.5195
" />
<path d="M64.9211 28.5195
L64.7397 28.4591
" />
<path d="M64.7397 28.4591
L64.6187 28.3381
" />
<path d="M64.6187 28.3381
L64.5582 28.2171
" />
<path d="M64.5582 28.2171
L64.4978 27.9752
" />
<path d="M64.4978 27.9752
L64.4978 27.7938
" />
<path d="M64.4978 27.7938
L64.5582 27.5519
" />
<path d="M64.5582 27.5519
L64.6187 27.4310
" />
<path d="M64.6187 27.4310
L64.7397 27.3100
" />
<path d="M64.7397 27.3100
L64.9211 27.2495
" />
<path d="M64.9211 27.2495
L65.0420 27.2495
" />
<path d="M65.0420 27.2495
L65.2235 27.3100
" />
<path d="M65.2235 27.3100
L65.2839 27.3705
" />
<path d="M66.2516 27.8543
L65.8282 27.8543
" />
<path d="M65.8282 28.5195
L65.8282 27.2495
" />
<path d="M65.8282 27.2495
L66.4330 27.2495
" />
<path d="M67.5821 28.5195
L66.8564 28.5195
" />
<path d="M67.2192 28.5195
L67.2192 27.2495
" />
<path d="M67.2192 27.2495
L67.0983 27.4310
" />
<path d="M67.0983 27.4310
L66.9773 27.5519
" />
<path d="M66.9773 27.5519
L66.8564 27.6124
" />
</g><text x="66.0399" y="31.1150"
textLength="4.9807" font-size="1.6933" lengthAdjust="spacingAndGlyphs"
text-anchor="middle" opacity="0">100n</text>
<g class="stroked-text"><desc>100n</desc>
<path d="M64.6188 31.0595
L63.8931 31.0595
" />
<path d="M64.2559 31.0595
L64.2559 29.7895
" />
<path d="M64.2559 29.7895
L64.1350 29.9710
" />
<path d="M64.1350 29.9710
L64.0140 30.0919
" />
<path d="M64.0140 30.0919
L63.8931 30.1524
" />
<path d="M65.4049 29.7895
L65.5259 29.7895
" />
<path d="M65.5259 29.7895
L65.6468 29.8500
" />
<path d="M65.6468 29.8500
L65.7073 29.9105
" />
<path d="M65.7073 29.9105
L65.7678 30.0314
" />
<path d="M65.7678 30.0314
L65.8283 30.2733
" />
<path d="M65.8283 30.2733
L65.8283 30.5757
" />
<path d="M65.8283 30.5757
L65.7678 30.8176
" />
<path d="M65.7678 30.8176
L65.7073 30.9386
" />
<path d="M65.7073 30.9386
L65.6468 30.9991
" />
<path d="M65.6468 30.9991
L65.5259 31.0595
" />
<path d="M65.5259 31.0595
L65.4049 31.0595
" />
<path d="M65.4049 31.0595
L65.2840 30.9991
" />
<path d="M65.2840 30.9991
L65.2235 30.9386
" />
<path d="M65.2235 30.9386
L65.1630 30.8176
" />
<path d="M65.1630 30.8176
L65.1026 30.5757
" />
<path d="M65.1026 30.5757
L65.1026 30.2733
" />
<path d="M65.1026 30.2733
L65.1630 30.0314
" />
<path d="M65.1630 30.0314
L65.2235 29.9105
" />
<path d="M65.2235 29.9105
L65.2840 29.8500
" />
<path d="M65.2840 29.8500
L65.4049 29.7895
" />
<path d="M66.6144 29.7895
L66.7354 29.7895
" />
<path d="M66.7354 29.7895
L66.8563 29.8500
" />
<path d="M66.8563 29.8500
L66.9168 29.9105
" />
<path d="M66.9168 29.9105
L66.9773 30.0314
" />
<path d="M66.9773 30.0314
L67.0378 30.2733
" />
<path d="M67.0378 30.2733
L67.0378 30.5757
" />
<path d="M67.0378 30.5757
L66.9773 30.8176
" />
<path d="M66.9773 30.8176
L66.9168 30.9386
" />
<path d="M66.9168 30.9386
L66.8563 30.9991
" />
<path d="M66.8563 30.9991
L66.7354 31.0595
" />
<path d="M66.7354 31.0595
L66.6144 31.0595
" />
<path d="M66.6144 31.0595
L66.4935 30.9991
" />
<path d="M66.4935 30.9991
L66.4330 30.9386
" />
<path d="M66.4330 30.9386
L66.3725 30.8176
" />
<path d="M66.3725 30.8176
L66.3121 30.5757
" />
<path d="M66.3121 30.5757
L66.3121 30.2733
" />
<path d="M66.3121 30.2733
L66.3725 30.0314
" />
<path d="M66.3725 30.0314
L66.4330 29.9105
" />
<path d="M66.4330 29.9105
L66.4935 29.8500
" />
<path d="M66.4935 29.8500
L66.6144 29.7895
" />
<path d="M67.5820 30.2129
L67.5820 31.0595
" />
<path d="M67.5820 30.3338
L67.6425 30.2733
" />
<path d="M67.6425 30.2733
L67.7635 30.2129
" />
<path d="M67.7635 30.2129
L67.9449 30.2129
" />
<path d="M67.9449 30.2129
L68.0658 30.2733
" />
<path d="M68.0658 30.2733
L68.1263 30.3943
" />
<path d="M68.1263 30.3943
L68.1263 31.0595
" />
</g></g>
</g>
<g style="fill:#000000; fill-opacity:0.0; 
stroke:#000000; stroke-width:0.1524; stroke-opacity:1; 
stroke-linecap:round; stroke-linejoin:round;">
<g >
<path style="fill:#000000; fill-opacity:0.0; 
stroke:#000000; stroke-width:0.1524; stroke-opacity:1; 
stroke-linecap:round; stroke-linejoin:round;fill:none"
d="M 59.0550,46.9900
57.7850,46.9900
" /> 
<path style="fill:#000000; fill-opacity:0.0; 
stroke:#000000; stroke-width:0.1524; stroke-opacity:1; 
stroke-linecap:round; stroke-linejoin:round;fill:none"
d="M 59.0550,41.9100
57.7850,41.9100
" /> 
<path style="fill:#000000; fill-opacity:0.0; 
stroke:#000000; stroke-width:0.1524; stroke-opacity:1; 
stroke-linecap:round; stroke-linejoin:round;fill:none"
d="M 58.4200,41.2750
58.4200,42.5450
" /> 
<path style="fill:#000000; fill-opacity:0.0; 
stroke:#000000; stroke-width:0.1524; stroke-opacity:1; 
stroke-linecap:round; stroke-linejoin:round;fill:none"
d="M 56.5150,46.3550
55.2450,46.3550
" /> 
<path style="fill:#000000; fill-opacity:0.0; 
stroke:#000000; stroke-width:0.1524; stroke-opacity:1; 
stroke-linecap:round; stroke-linejoin:round;fill:none"
d="M 56.5150,42.5450
55.2450,42.5450
" /> 
<path style="fill:#000000; fill-opacity:0.0; 
stroke:#000000; stroke-width:0.1524; stroke-opacity:1; 
stroke-linecap:round; stroke-linejoin:round;fill:none"
d="M 55.8800,41.9100
55.8800,43.1800
" /> 
<path style="fill:#000000; fill-opacity:0.0; 
stroke:#000000; stroke-width:0.1524; stroke-opacity:1; 
stroke-linecap:round; stroke-linejoin:round;fill:none"
d="M 54.6100,46.9900
54.6100,45.7200
" /> 
<path style="fill:#000000; fill-opacity:0.0; 
stroke:#000000; stroke-width:0.1524; stroke-opacity:1; 
stroke-linecap:round; stroke-linejoin:round;fill:none"
d="M 54.6100,41.9100
54.6100,43.1800
" /> 
</g>
<g style="fill:#000000; fill-opacity:0.0; 
stroke:#000000; stroke-width:0.2540; stroke-opacity:1; 
stroke-linecap:round; stroke-linejoin:round;">
<path style="fill:#000000; fill-opacity:0.0; 
stroke:#000000; stroke-width:0.2540; stroke-opacity:1; 
stroke-linecap:round; stroke-linejoin:round;fill:none"
d="M 49.5300,44.4500
59.6900,39.3700
59.6900,49.5300
Z" /> 
</g>
<g style="fill:#000000; fill-opacity:0.0; 
stroke:#000000; stroke-width:0.1524; stroke-opacity:1; 
stroke-linecap:round; stroke-linejoin:round;">
<circle cx="54.6100" cy="44.4500" r="1.2700" /> 
<path d="M54.6100 41.9100
L49.5300 41.9100
" />
<path d="M54.6100 46.9900
L49.5300 46.9900
" />
<path d="M59.6900 41.9100
L62.2300 41.9100
" />
<path d="M59.6900 46.9900
L62.2300 46.9900
" />
<text x="57.1499" y="51.4350"
textLength="2.5617" font-size="1.6933" lengthAdjust="spacingAndGlyphs"
text-anchor="middle" opacity="0">E1</text>
<g class="stroked-text"><desc>E1</desc>
<path d="M56.2730 50.7143
L56.6964 50.7143
" />
<path d="M56.8778 51.3795
L56.2730 51.3795
" />
<path d="M56.2730 51.3795
L56.2730 50.1095
" />
<path d="M56.2730 50.1095
L56.8778 50.1095
" />
<path d="M58.0873 51.3795
L57.3616 51.3795
" />
<path d="M57.7244 51.3795
L57.7244 50.1095
" />
<path d="M57.7244 50.1095
L57.6035 50.2910
" />
<path d="M57.6035 50.2910
L57.4825 50.4119
" />
<path d="M57.4825 50.4119
L57.3616 50.4724
" />
</g><text x="57.1499" y="53.9750"
textLength="3.8317" font-size="1.6933" lengthAdjust="spacingAndGlyphs"
text-anchor="middle" opacity="0">100</text>
<g class="stroked-text"><desc>100</desc>
<path d="M56.3033 53.9195
L55.5776 53.9195
" />
<path d="M55.9404 53.9195
L55.9404 52.6495
" />
<path d="M55.9404 52.6495
L55.8195 52.8310
" />
<path d="M55.8195 52.8310
L55.6985 52.9519
" />
<path d="M55.6985 52.9519
L55.5776 53.0124
" />
<path d="M57.0894 52.6495
L57.2104 52.6495
" />
<path d="M57.2104 52.6495
L57.3313 52.7100
" />
<path d="M57.3313 52.7100
L57.3918 52.7705
" />
<path d="M57.3918 52.7705
L57.4523 52.8914
" />
<path d="M57.4523 52.8914
L57.5128 53.1333
" />
<path d="M57.5128 53.1333
L57.5128 53.4357
" />
<path d="M57.5128 53.4357
L57.4523 53.6776
" />
<path d="M57.4523 53.6776
L57.3918 53.7986
" />
<path d="M57.3918 53.7986
L57.3313 53.8591
" />
<path d="M57.3313 53.8591
L57.2104 53.9195
" />
<path d="M57.2104 53.9195
L57.0894 53.9195
" />
<path d="M57.0894 53.9195
L56.9685 53.8591
" />
<path d="M56.9685 53.8591
L56.9080 53.7986
" />
<path d="M56.9080 53.7986
L56.8475 53.6776
" />
<path d="M56.8475 53.6776
L56.7871 53.4357
" />
<path d="M56.7871 53.4357
L56.7871 53.1333
" />
<path d="M56.7871 53.1333
L56.8475 52.8914
" />
<path d="M56.8475 52.8914
L56.9080 52.7705
" />
<path d="M56.9080 52.7705
L56.9685 52.7100
" />
<path d="M56.9685 52.7100
L57.0894 52.6495
" />
<path d="M58.2989 52.6495
L58.4199 52.6495
" />
<path d="M58.4199 52.6495
L58.5408 52.7100
" />
<path d="M58.5408 52.7100
L58.6013 52.7705
" />
<path d="M58.6013 52.7705
L58.6618 52.8914
" />
<path d="M58.6618 52.8914
L58.7223 53.1333
" />
<path d="M58.7223 53.1333
L58.7223 53.4357
" />
<path d="M58.7223 53.4357
L58.6618 53.6776
" />
<path d="M58.6618 53.6776
L58.6013 53.7986
" />
<path d="M58.6013 53.7986
L58.5408 53.8591
" />
<path d="M58.5408 53.8591
L58.4199 53.9195
" />
<path d="M58.4199 53.9195
L58.2989 53.9195
" />
<path d="M58.2989 53.9195
L58.1780 53.8591
" />
<path d="M58.1780 53.8591
L58.1175 53.7986
" />
<path d="M58.1175 53.7986
L58.0570 53.6776
" />
<path d="M58.0570 53.6776
L57.9966 53.4357
" />
<path d="M57.9966 53.4357
L57.9966 53.1333
" />
<path d="M57.9966 53.1333
L58.0570 52.8914
" />
<path d="M58.0570 52.8914
L58.1175 52.7705
" />
<path d="M58.1175 52.7705
L58.1780 52.7100
" />
<path d="M58.1780 52.7100
L58.2989 52.6495
" />
</g></g>
</g>
<g style="fill:#000000; fill-opacity:0.0; 
stroke:#000000; stroke-width:0.1524; stroke-opacity:1; 
stroke-linecap:round; stroke-linejoin:round;">
<g >
<path style="fill:#000000; fill-opacity:0.0; 
stroke:#000000; stroke-width:0.1524; stroke-opacity:1; 
stroke-linecap:round; stroke-linejoin:round;fill:none"
d="M 75.4380,19.0500
74.9300,20.0660
73.9140,18.0340
72.8980,20.0660
71.8820,18.0340
70.8660,20.0660
69.8500,18.0340
69.3420,19.0500
" /> 
<path d="M69.3000 19.0500
L68.5800 19.0500
" />
<path d="M75.4800 19.0500
L76.2000 19.0500
" />
<text x="72.3900" y="14.6050"
textLength="6.2508" font-size="1.6933" lengthAdjust="spacingAndGlyphs"
text-anchor="middle" opacity="0">RSOL1</text>
<g class="stroked-text"><desc>RSOL1</desc>
<path d="M70.3942 14.5495
L69.9709 13.9448
" />
<path d="M69.6685 14.5495
L69.6685 13.2795
" />
<path d="M69.6685 13.2795
L70.1523 13.2795
" />
<path d="M70.1523 13.2795
L70.2733 13.3400
" />
<path d="M70.2733 13.3400
L70.3338 13.4005
" />
<path d="M70.3338 13.4005
L70.3942 13.5214
" />
<path d="M70.3942 13.5214
L70.3942 13.7029
" />
<path d="M70.3942 13.7029
L70.3338 13.8238
" />
<path d="M70.3338 13.8238
L70.2733 13.8843
" />
<path d="M70.2733 13.8843
L70.1523 13.9448
" />
<path d="M70.1523 13.9448
L69.6685 13.9448
" />
<path d="M70.8781 14.4891
L71.0595 14.5495
" />
<path d="M71.0595 14.5495
L71.3619 14.5495
" />
<path d="M71.3619 14.5495
L71.4828 14.4891
" />
<path d="M71.4828 14.4891
L71.5433 14.4286
" />
<path d="M71.5433 14.4286
L71.6038 14.3076
" />
<path d="M71.6038 14.3076
L71.6038 14.1867
" />
<path d="M71.6038 14.1867
L71.5433 14.0657
" />
<path d="M71.5433 14.0657
L71.4828 14.0052
" />
<path d="M71.4828 14.0052
L71.3619 13.9448
" />
<path d="M71.3619 13.9448
L71.1200 13.8843
" />
<path d="M71.1200 13.8843
L70.9990 13.8238
" />
<path d="M70.9990 13.8238
L70.9385 13.7633
" />
<path d="M70.9385 13.7633
L70.8781 13.6424
" />
<path d="M70.8781 13.6424
L70.8781 13.5214
" />
<path d="M70.8781 13.5214
L70.9385 13.4005
" />
<path d="M70.9385 13.4005
L70.9990 13.3400
" />
<path d="M70.9990 13.3400
L71.1200 13.2795
" />
<path d="M71.1200 13.2795
L71.4223 13.2795
" />
<path d="M71.4223 13.2795
L71.6038 13.3400
" />
<path d="M72.3899 13.2795
L72.6318 13.2795
" />
<path d="M72.6318 13.2795
L72.7528 13.3400
" />
<path d="M72.7528 13.3400
L72.8737 13.4610
" />
<path d="M72.8737 13.4610
L72.9342 13.7029
" />
<path d="M72.9342 13.7029
L72.9342 14.1262
" />
<path d="M72.9342 14.1262
L72.8737 14.3681
" />
<path d="M72.8737 14.3681
L72.7528 14.4891
" />
<path d="M72.7528 14.4891
L72.6318 14.5495
" />
<path d="M72.6318 14.5495
L72.3899 14.5495
" />
<path d="M72.3899 14.5495
L72.2690 14.4891
" />
<path d="M72.2690 14.4891
L72.1480 14.3681
" />
<path d="M72.1480 14.3681
L72.0876 14.1262
" />
<path d="M72.0876 14.1262
L72.0876 13.7029
" />
<path d="M72.0876 13.7029
L72.1480 13.4610
" />
<path d="M72.1480 13.4610
L72.2690 13.3400
" />
<path d="M72.2690 13.3400
L72.3899 13.2795
" />
<path d="M74.0833 14.5495
L73.4785 14.5495
" />
<path d="M73.4785 14.5495
L73.4785 13.2795
" />
<path d="M75.1719 14.5495
L74.4462 14.5495
" />
<path d="M74.8090 14.5495
L74.8090 13.2795
" />
<path d="M74.8090 13.2795
L74.6881 13.4610
" />
<path d="M74.6881 13.4610
L74.5671 13.5819
" />
<path d="M74.5671 13.5819
L74.4462 13.6424
" />
</g><text x="72.3899" y="17.1450"
textLength="1.4127" font-size="1.6933" lengthAdjust="spacingAndGlyphs"
text-anchor="middle" opacity="0">1</text>
<g class="stroked-text"><desc>1</desc>
<path d="M72.7528 17.0895
L72.0271 17.0895
" />
<path d="M72.3899 17.0895
L72.3899 15.8195
" />
<path d="M72.3899 15.8195
L72.2690 16.0010
" />
<path d="M72.2690 16.0010
L72.1480 16.1219
" />
<path d="M72.1480 16.1219
L72.0271 16.1824
" />
</g></g>
</g>
<g style="fill:#000000; fill-opacity:0.0; 
stroke:#000000; stroke-width:0.1524; stroke-opacity:1; 
stroke-linecap:round; stroke-linejoin:round;">
<g >
</g>
<g style="fill:#000000; fill-opacity:0.0; 
stroke:#000000; stroke-width:0.2540; stroke-opacity:1; 
stroke-linecap:round; stroke-linejoin:round;">
<path style="fill:#000000; fill-opacity:0.0; 
stroke:#000000; stroke-width:0.2540; stroke-opacity:1; 
stroke-linecap:round; stroke-linejoin:round;fill:none"
d="M 62.2300,19.0500
52.0700,13.9700
52.0700,24.1300
Z" /> 
<rect x="49.530000" y="13.970000" width="2.540000" height="10.160000" rx="0.000000" />
</g>
<g style="fill:#000000; fill-opacity:0.0; 
stroke:#000000; stroke-width:0.1524; stroke-opacity:1; 
stroke-linecap:round; stroke-linejoin:round;">
<path d="M49.5300 16.5100
L44.4500 16.5100
" />
<path d="M49.5300 21.5900
L44.4500 21.5900
" />
<path d="M62.2260 19.0500
L64.7700 19.0500
" />
<text x="55.8800" y="6.9850"
textLength="2.6222" font-size="1.6933" lengthAdjust="spacingAndGlyphs"
text-anchor="middle" opacity="0">X3</text>
<g class="stroked-text"><desc>X3</desc>
<path d="M54.8519 5.6595
L55.6985 6.9295
" />
<path d="M55.6985 5.6595
L54.8519 6.9295
" />
<path d="M56.0614 5.6595
L56.8476 5.6595
" />
<path d="M56.8476 5.6595
L56.4242 6.1433
" />
<path d="M56.4242 6.1433
L56.6057 6.1433
" />
<path d="M56.6057 6.1433
L56.7266 6.2038
" />
<path d="M56.7266 6.2038
L56.7871 6.2643
" />
<path d="M56.7871 6.2643
L56.8476 6.3852
" />
<path d="M56.8476 6.3852
L56.8476 6.6876
" />
<path d="M56.8476 6.6876
L56.7871 6.8086
" />
<path d="M56.7871 6.8086
L56.7266 6.8691
" />
<path d="M56.7266 6.8691
L56.6057 6.9295
" />
<path d="M56.6057 6.9295
L56.2428 6.9295
" />
<path d="M56.2428 6.9295
L56.1219 6.8691
" />
<path d="M56.1219 6.8691
L56.0614 6.8086
" />
</g><text x="55.8800" y="9.5250"
textLength="4.2550" font-size="1.6933" lengthAdjust="spacingAndGlyphs"
text-anchor="middle" opacity="0">Sum</text>
<g class="stroked-text"><desc>Sum</desc>
<path d="M54.0960 9.4091
L54.2774 9.4695
" />
<path d="M54.2774 9.4695
L54.5798 9.4695
" />
<path d="M54.5798 9.4695
L54.7007 9.4091
" />
<path d="M54.7007 9.4091
L54.7612 9.3486
" />
<path d="M54.7612 9.3486
L54.8217 9.2276
" />
<path d="M54.8217 9.2276
L54.8217 9.1067
" />
<path d="M54.8217 9.1067
L54.7612 8.9857
" />
<path d="M54.7612 8.9857
L54.7007 8.9252
" />
<path d="M54.7007 8.9252
L54.5798 8.8648
" />
<path d="M54.5798 8.8648
L54.3379 8.8043
" />
<path d="M54.3379 8.8043
L54.2169 8.7438
" />
<path d="M54.2169 8.7438
L54.1564 8.6833
" />
<path d="M54.1564 8.6833
L54.0960 8.5624
" />
<path d="M54.0960 8.5624
L54.0960 8.4414
" />
<path d="M54.0960 8.4414
L54.1564 8.3205
" />
<path d="M54.1564 8.3205
L54.2169 8.2600
" />
<path d="M54.2169 8.2600
L54.3379 8.1995
" />
<path d="M54.3379 8.1995
L54.6402 8.1995
" />
<path d="M54.6402 8.1995
L54.8217 8.2600
" />
<path d="M55.9102 8.6229
L55.9102 9.4695
" />
<path d="M55.3659 8.6229
L55.3659 9.2881
" />
<path d="M55.3659 9.2881
L55.4264 9.4091
" />
<path d="M55.4264 9.4091
L55.5474 9.4695
" />
<path d="M55.5474 9.4695
L55.7288 9.4695
" />
<path d="M55.7288 9.4695
L55.8497 9.4091
" />
<path d="M55.8497 9.4091
L55.9102 9.3486
" />
<path d="M56.5149 9.4695
L56.5149 8.6229
" />
<path d="M56.5149 8.7438
L56.5754 8.6833
" />
<path d="M56.5754 8.6833
L56.6964 8.6229
" />
<path d="M56.6964 8.6229
L56.8778 8.6229
" />
<path d="M56.8778 8.6229
L56.9987 8.6833
" />
<path d="M56.9987 8.6833
L57.0592 8.8043
" />
<path d="M57.0592 8.8043
L57.0592 9.4695
" />
<path d="M57.0592 8.8043
L57.1197 8.6833
" />
<path d="M57.1197 8.6833
L57.2406 8.6229
" />
<path d="M57.2406 8.6229
L57.4221 8.6229
" />
<path d="M57.4221 8.6229
L57.5430 8.6833
" />
<path d="M57.5430 8.6833
L57.6035 8.8043
" />
<path d="M57.6035 8.8043
L57.6035 9.4695
" />
</g><text x="55.8800" y="12.0650"
textLength="16.1083" font-size="1.6933" lengthAdjust="spacingAndGlyphs"
text-anchor="middle" opacity="0">k1=1 k2=1 a=1</text>
<g class="stroked-text"><desc>k1=1 k2=1 a=1</desc>
<path d="M48.2298 12.0095
L48.2298 10.7395
" />
<path d="M48.3508 11.5257
L48.7136 12.0095
" />
<path d="M48.7136 11.1629
L48.2298 11.6467
" />
<path d="M49.9232 12.0095
L49.1975 12.0095
" />
<path d="M49.5603 12.0095
L49.5603 10.7395
" />
<path d="M49.5603 10.7395
L49.4394 10.9210
" />
<path d="M49.4394 10.9210
L49.3184 11.0419
" />
<path d="M49.3184 11.0419
L49.1975 11.1024
" />
<path d="M50.4674 11.3443
L51.4351 11.3443
" />
<path d="M51.4351 11.7071
L50.4674 11.7071
" />
<path d="M52.7051 12.0095
L51.9794 12.0095
" />
<path d="M52.3422 12.0095
L52.3422 10.7395
" />
<path d="M52.3422 10.7395
L52.2213 10.9210
" />
<path d="M52.2213 10.9210
L52.1003 11.0419
" />
<path d="M52.1003 11.0419
L51.9794 11.1024
" />
<path d="M54.2169 12.0095
L54.2169 10.7395
" />
<path d="M54.3379 11.5257
L54.7007 12.0095
" />
<path d="M54.7007 11.1629
L54.2169 11.6467
" />
<path d="M55.1846 10.8605
L55.2450 10.8000
" />
<path d="M55.2450 10.8000
L55.3660 10.7395
" />
<path d="M55.3660 10.7395
L55.6684 10.7395
" />
<path d="M55.6684 10.7395
L55.7893 10.8000
" />
<path d="M55.7893 10.8000
L55.8498 10.8605
" />
<path d="M55.8498 10.8605
L55.9103 10.9814
" />
<path d="M55.9103 10.9814
L55.9103 11.1024
" />
<path d="M55.9103 11.1024
L55.8498 11.2838
" />
<path d="M55.8498 11.2838
L55.1241 12.0095
" />
<path d="M55.1241 12.0095
L55.9103 12.0095
" />
<path d="M56.4545 11.3443
L57.4222 11.3443
" />
<path d="M57.4222 11.7071
L56.4545 11.7071
" />
<path d="M58.6922 12.0095
L57.9665 12.0095
" />
<path d="M58.3293 12.0095
L58.3293 10.7395
" />
<path d="M58.3293 10.7395
L58.2084 10.9210
" />
<path d="M58.2084 10.9210
L58.0874 11.0419
" />
<path d="M58.0874 11.0419
L57.9665 11.1024
" />
<path d="M60.7483 12.0095
L60.7483 11.3443
" />
<path d="M60.7483 11.3443
L60.6878 11.2233
" />
<path d="M60.6878 11.2233
L60.5669 11.1629
" />
<path d="M60.5669 11.1629
L60.3250 11.1629
" />
<path d="M60.3250 11.1629
L60.2040 11.2233
" />
<path d="M60.7483 11.9491
L60.6274 12.0095
" />
<path d="M60.6274 12.0095
L60.3250 12.0095
" />
<path d="M60.3250 12.0095
L60.2040 11.9491
" />
<path d="M60.2040 11.9491
L60.1436 11.8281
" />
<path d="M60.1436 11.8281
L60.1436 11.7071
" />
<path d="M60.1436 11.7071
L60.2040 11.5862
" />
<path d="M60.2040 11.5862
L60.3250 11.5257
" />
<path d="M60.3250 11.5257
L60.6274 11.5257
" />
<path d="M60.6274 11.5257
L60.7483 11.4652
" />
<path d="M61.3530 11.3443
L62.3207 11.3443
" />
<path d="M62.3207 11.7071
L61.3530 11.7071
" />
<path d="M63.5907 12.0095
L62.8650 12.0095
" />
<path d="M63.2278 12.0095
L63.2278 10.7395
" />
<path d="M63.2278 10.7395
L63.1069 10.9210
" />
<path d="M63.1069 10.9210
L62.9859 11.0419
" />
<path d="M62.9859 11.0419
L62.8650 11.1024
" />
</g></g>
</g>
<g style="fill:#000000; fill-opacity:0.0; 
stroke:#000000; stroke-width:0.1524; stroke-opacity:1; 
stroke-linecap:round; stroke-linejoin:round;">
<g >
<path style="fill:#000000; fill-opacity:0.0; 
stroke:#000000; stroke-width:0.1524; stroke-opacity:1; 
stroke-linecap:round; stroke-linejoin:round;fill:none"
d="M 77.4700,42.4180
76.4540,41.9100
78.4860,40.8940
76.4540,39.8780
78.4860,38.8620
76.4540,37.8460
78.4860,36.8300
77.4700,36.3220
" /> 
<path d="M77.4700 36.2800
L77.4700 35.5600
" />
<path d="M77.4700 42.4600
L77.4700 43.1800
" />
<text x="84.5057" y="38.7350"
textLength="8.9722" font-size="1.6933" lengthAdjust="spacingAndGlyphs"
text-anchor="middle" opacity="0">RUPPER1</text>
<g class="stroked-text"><desc>RUPPER1</desc>
<path d="M81.1492 38.6795
L80.7259 38.0748
" />
<path d="M80.4235 38.6795
L80.4235 37.4095
" />
<path d="M80.4235 37.4095
L80.9073 37.4095
" />
<path d="M80.9073 37.4095
L81.0283 37.4700
" />
<path d="M81.0283 37.4700
L81.0888 37.5305
" />
<path d="M81.0888 37.5305
L81.1492 37.6514
" />
<path d="M81.1492 37.6514
L81.1492 37.8329
" />
<path d="M81.1492 37.8329
L81.0888 37.9538
" />
<path d="M81.0888 37.9538
L81.0283 38.0143
" />
<path d="M81.0283 38.0143
L80.9073 38.0748
" />
<path d="M80.9073 38.0748
L80.4235 38.0748
" />
<path d="M81.6935 37.4095
L81.6935 38.4376
" />
<path d="M81.6935 38.4376
L81.7540 38.5586
" />
<path d="M81.7540 38.5586
L81.8145 38.6191
" />
<path d="M81.8145 38.6191
L81.9354 38.6795
" />
<path d="M81.9354 38.6795
L82.1773 38.6795
" />
<path d="M82.1773 38.6795
L82.2983 38.6191
" />
<path d="M82.2983 38.6191
L82.3588 38.5586
" />
<path d="M82.3588 38.5586
L82.4192 38.4376
" />
<path d="M82.4192 38.4376
L82.4192 37.4095
" />
<path d="M83.0240 38.6795
L83.0240 37.4095
" />
<path d="M83.0240 37.4095
L83.5078 37.4095
" />
<path d="M83.5078 37.4095
L83.6288 37.4700
" />
<path d="M83.6288 37.4700
L83.6893 37.5305
" />
<path d="M83.6893 37.5305
L83.7497 37.6514
" />
<path d="M83.7497 37.6514
L83.7497 37.8329
" />
<path d="M83.7497 37.8329
L83.6893 37.9538
" />
<path d="M83.6893 37.9538
L83.6288 38.0143
" />
<path d="M83.6288 38.0143
L83.5078 38.0748
" />
<path d="M83.5078 38.0748
L83.0240 38.0748
" />
<path d="M84.2940 38.6795
L84.2940 37.4095
" />
<path d="M84.2940 37.4095
L84.7778 37.4095
" />
<path d="M84.7778 37.4095
L84.8988 37.4700
" />
<path d="M84.8988 37.4700
L84.9593 37.5305
" />
<path d="M84.9593 37.5305
L85.0197 37.6514
" />
<path d="M85.0197 37.6514
L85.0197 37.8329
" />
<path d="M85.0197 37.8329
L84.9593 37.9538
" />
<path d="M84.9593 37.9538
L84.8988 38.0143
" />
<path d="M84.8988 38.0143
L84.7778 38.0748
" />
<path d="M84.7778 38.0748
L84.2940 38.0748
" />
<path d="M85.5640 38.0143
L85.9874 38.0143
" />
<path d="M86.1688 38.6795
L85.5640 38.6795
" />
<path d="M85.5640 38.6795
L85.5640 37.4095
" />
<path d="M85.5640 37.4095
L86.1688 37.4095
" />
<path d="M87.4387 38.6795
L87.0154 38.0748
" />
<path d="M86.7130 38.6795
L86.7130 37.4095
" />
<path d="M86.7130 37.4095
L87.1968 37.4095
" />
<path d="M87.1968 37.4095
L87.3178 37.4700
" />
<path d="M87.3178 37.4700
L87.3783 37.5305
" />
<path d="M87.3783 37.5305
L87.4387 37.6514
" />
<path d="M87.4387 37.6514
L87.4387 37.8329
" />
<path d="M87.4387 37.8329
L87.3783 37.9538
" />
<path d="M87.3783 37.9538
L87.3178 38.0143
" />
<path d="M87.3178 38.0143
L87.1968 38.0748
" />
<path d="M87.1968 38.0748
L86.7130 38.0748
" />
<path d="M88.6483 38.6795
L87.9226 38.6795
" />
<path d="M88.2854 38.6795
L88.2854 37.4095
" />
<path d="M88.2854 37.4095
L88.1645 37.5910
" />
<path d="M88.1645 37.5910
L88.0435 37.7119
" />
<path d="M88.0435 37.7119
L87.9226 37.7724
" />
</g><text x="81.8447" y="41.2750"
textLength="3.6503" font-size="1.6933" lengthAdjust="spacingAndGlyphs"
text-anchor="middle" opacity="0">10k</text>
<g class="stroked-text"><desc>10k</desc>
<path d="M81.0888 41.2195
L80.3631 41.2195
" />
<path d="M80.7259 41.2195
L80.7259 39.9495
" />
<path d="M80.7259 39.9495
L80.6050 40.1310
" />
<path d="M80.6050 40.1310
L80.4840 40.2519
" />
<path d="M80.4840 40.2519
L80.3631 40.3124
" />
<path d="M81.8749 39.9495
L81.9959 39.9495
" />
<path d="M81.9959 39.9495
L82.1168 40.0100
" />
<path d="M82.1168 40.0100
L82.1773 40.0705
" />
<path d="M82.1773 40.0705
L82.2378 40.1914
" />
<path d="M82.2378 40.1914
L82.2983 40.4333
" />
<path d="M82.2983 40.4333
L82.2983 40.7357
" />
<path d="M82.2983 40.7357
L82.2378 40.9776
" />
<path d="M82.2378 40.9776
L82.1773 41.0986
" />
<path d="M82.1773 41.0986
L82.1168 41.1591
" />
<path d="M82.1168 41.1591
L81.9959 41.2195
" />
<path d="M81.9959 41.2195
L81.8749 41.2195
" />
<path d="M81.8749 41.2195
L81.7540 41.1591
" />
<path d="M81.7540 41.1591
L81.6935 41.0986
" />
<path d="M81.6935 41.0986
L81.6330 40.9776
" />
<path d="M81.6330 40.9776
L81.5726 40.7357
" />
<path d="M81.5726 40.7357
L81.5726 40.4333
" />
<path d="M81.5726 40.4333
L81.6330 40.1914
" />
<path d="M81.6330 40.1914
L81.6935 40.0705
" />
<path d="M81.6935 40.0705
L81.7540 40.0100
" />
<path d="M81.7540 40.0100
L81.8749 39.9495
" />
<path d="M82.8425 41.2195
L82.8425 39.9495
" />
<path d="M82.9635 40.7357
L83.3263 41.2195
" />
<path d="M83.3263 40.3729
L82.8425 40.8567
" />
</g></g>
</g>
<g style="fill:#000000; fill-opacity:0.0; 
stroke:#000000; stroke-width:0.1524; stroke-opacity:1; 
stroke-linecap:round; stroke-linejoin:round;">
<g >
<path style="fill:#000000; fill-opacity:0.0; 
stroke:#000000; stroke-width:0.1524; stroke-opacity:1; 
stroke-linecap:round; stroke-linejoin:round;fill:none"
d="M 55.1180,34.2900
54.6100,35.3060
53.5940,33.2740
52.5780,35.3060
51.5620,33.2740
50.5460,35.3060
49.5300,33.2740
49.0220,34.2900
" /> 
<path d="M48.9800 34.2900
L48.2600 34.2900
" />
<path d="M55.1600 34.2900
L55.8800 34.2900
" />
<text x="52.0699" y="28.5750"
textLength="3.7713" font-size="1.6933" lengthAdjust="spacingAndGlyphs"
text-anchor="middle" opacity="0">RF1</text>
<g class="stroked-text"><desc>RF1</desc>
<path d="M51.3139 28.5195
L50.8906 27.9148
" />
<path d="M50.5882 28.5195
L50.5882 27.2495
" />
<path d="M50.5882 27.2495
L51.0720 27.2495
" />
<path d="M51.0720 27.2495
L51.1930 27.3100
" />
<path d="M51.1930 27.3100
L51.2535 27.3705
" />
<path d="M51.2535 27.3705
L51.3139 27.4914
" />
<path d="M51.3139 27.4914
L51.3139 27.6729
" />
<path d="M51.3139 27.6729
L51.2535 27.7938
" />
<path d="M51.2535 27.7938
L51.1930 27.8543
" />
<path d="M51.1930 27.8543
L51.0720 27.9148
" />
<path d="M51.0720 27.9148
L50.5882 27.9148
" />
<path d="M52.2816 27.8543
L51.8582 27.8543
" />
<path d="M51.8582 28.5195
L51.8582 27.2495
" />
<path d="M51.8582 27.2495
L52.4630 27.2495
" />
<path d="M53.6121 28.5195
L52.8864 28.5195
" />
<path d="M53.2492 28.5195
L53.2492 27.2495
" />
<path d="M53.2492 27.2495
L53.1283 27.4310
" />
<path d="M53.1283 27.4310
L53.0073 27.5519
" />
<path d="M53.0073 27.5519
L52.8864 27.6124
" />
</g><text x="52.0699" y="31.1150"
textLength="3.8317" font-size="1.6933" lengthAdjust="spacingAndGlyphs"
text-anchor="middle" opacity="0">100</text>
<g class="stroked-text"><desc>100</desc>
<path d="M51.2233 31.0595
L50.4976 31.0595
" />
<path d="M50.8604 31.0595
L50.8604 29.7895
" />
<path d="M50.8604 29.7895
L50.7395 29.9710
" />
<path d="M50.7395 29.9710
L50.6185 30.0919
" />
<path d="M50.6185 30.0919
L50.4976 30.1524
" />
<path d="M52.0094 29.7895
L52.1304 29.7895
" />
<path d="M52.1304 29.7895
L52.2513 29.8500
" />
<path d="M52.2513 29.8500
L52.3118 29.9105
" />
<path d="M52.3118 29.9105
L52.3723 30.0314
" />
<path d="M52.3723 30.0314
L52.4328 30.2733
" />
<path d="M52.4328 30.2733
L52.4328 30.5757
" />
<path d="M52.4328 30.5757
L52.3723 30.8176
" />
<path d="M52.3723 30.8176
L52.3118 30.9386
" />
<path d="M52.3118 30.9386
L52.2513 30.9991
" />
<path d="M52.2513 30.9991
L52.1304 31.0595
" />
<path d="M52.1304 31.0595
L52.0094 31.0595
" />
<path d="M52.0094 31.0595
L51.8885 30.9991
" />
<path d="M51.8885 30.9991
L51.8280 30.9386
" />
<path d="M51.8280 30.9386
L51.7675 30.8176
" />
<path d="M51.7675 30.8176
L51.7071 30.5757
" />
<path d="M51.7071 30.5757
L51.7071 30.2733
" />
<path d="M51.7071 30.2733
L51.7675 30.0314
" />
<path d="M51.7675 30.0314
L51.8280 29.9105
" />
<path d="M51.8280 29.9105
L51.8885 29.8500
" />
<path d="M51.8885 29.8500
L52.0094 29.7895
" />
<path d="M53.2189 29.7895
L53.3399 29.7895
" />
<path d="M53.3399 29.7895
L53.4608 29.8500
" />
<path d="M53.4608 29.8500
L53.5213 29.9105
" />
<path d="M53.5213 29.9105
L53.5818 30.0314
" />
<path d="M53.5818 30.0314
L53.6423 30.2733
" />
<path d="M53.6423 30.2733
L53.6423 30.5757
" />
<path d="M53.6423 30.5757
L53.5818 30.8176
" />
<path d="M53.5818 30.8176
L53.5213 30.9386
" />
<path d="M53.5213 30.9386
L53.4608 30.9991
" />
<path d="M53.4608 30.9991
L53.3399 31.0595
" />
<path d="M53.3399 31.0595
L53.2189 31.0595
" />
<path d="M53.2189 31.0595
L53.0980 30.9991
" />
<path d="M53.0980 30.9991
L53.0375 30.9386
" />
<path d="M53.0375 30.9386
L52.9770 30.8176
" />
<path d="M52.9770 30.8176
L52.9166 30.5757
" />
<path d="M52.9166 30.5757
L52.9166 30.2733
" />
<path d="M52.9166 30.2733
L52.9770 30.0314
" />
<path d="M52.9770 30.0314
L53.0375 29.9105
" />
<path d="M53.0375 29.9105
L53.0980 29.8500
" />
<path d="M53.0980 29.8500
L53.2189 29.7895
" />
</g></g>
</g>
<g style="fill:#000000; fill-opacity:0.0; 
stroke:#000000; stroke-width:0.1524; stroke-opacity:1; 
stroke-linecap:round; stroke-linejoin:round;">
<g >
<path style="fill:#000000; fill-opacity:0.0; 
stroke:#000000; stroke-width:0.1524; stroke-opacity:1; 
stroke-linecap:round; stroke-linejoin:round;fill:none"
d="M 41.2750,46.9900
40.0050,46.9900
" /> 
<path style="fill:#000000; fill-opacity:0.0; 
stroke:#000000; stroke-width:0.1524; stroke-opacity:1; 
stroke-linecap:round; stroke-linejoin:round;fill:none"
d="M 41.2750,41.9100
40.0050,41.9100
" /> 
<path style="fill:#000000; fill-opacity:0.0; 
stroke:#000000; stroke-width:0.1524; stroke-opacity:1; 
stroke-linecap:round; stroke-linejoin:round;fill:none"
d="M 40.6400,41.2750
40.6400,42.5450
" /> 
<path style="fill:#000000; fill-opacity:0.0; 
stroke:#000000; stroke-width:0.1524; stroke-opacity:1; 
stroke-linecap:round; stroke-linejoin:round;fill:none"
d="M 38.7350,46.3550
37.4650,46.3550
" /> 
<path style="fill:#000000; fill-opacity:0.0; 
stroke:#000000; stroke-width:0.1524; stroke-opacity:1; 
stroke-linecap:round; stroke-linejoin:round;fill:none"
d="M 38.7350,42.5450
37.4650,42.5450
" /> 
<path style="fill:#000000; fill-opacity:0.0; 
stroke:#000000; stroke-width:0.1524; stroke-opacity:1; 
stroke-linecap:round; stroke-linejoin:round;fill:none"
d="M 38.1000,41.9100
38.1000,43.1800
" /> 
<path style="fill:#000000; fill-opacity:0.0; 
stroke:#000000; stroke-width:0.1524; stroke-opacity:1; 
stroke-linecap:round; stroke-linejoin:round;fill:none"
d="M 36.8300,46.9900
36.8300,45.7200
" /> 
<path style="fill:#000000; fill-opacity:0.0; 
stroke:#000000; stroke-width:0.1524; stroke-opacity:1; 
stroke-linecap:round; stroke-linejoin:round;fill:none"
d="M 36.8300,41.9100
36.8300,43.1800
" /> 
</g>
<g style="fill:#000000; fill-opacity:0.0; 
stroke:#000000; stroke-width:0.2540; stroke-opacity:1; 
stroke-linecap:round; stroke-linejoin:round;">
<path style="fill:#000000; fill-opacity:0.0; 
stroke:#000000; stroke-width:0.2540; stroke-opacity:1; 
stroke-linecap:round; stroke-linejoin:round;fill:none"
d="M 31.7500,44.4500
41.9100,39.3700
41.9100,49.5300
Z" /> 
</g>
<g style="fill:#000000; fill-opacity:0.0; 
stroke:#000000; stroke-width:0.1524; stroke-opacity:1; 
stroke-linecap:round; stroke-linejoin:round;">
<circle cx="36.8300" cy="44.4500" r="1.2700" /> 
<path d="M36.8300 41.9100
L31.7500 41.9100
" />
<path d="M36.8300 46.9900
L31.7500 46.9900
" />
<path d="M41.9100 41.9100
L44.4500 41.9100
" />
<path d="M41.9100 46.9900
L44.4500 46.9900
" />
<text x="39.3699" y="51.4350"
textLength="2.5617" font-size="1.6933" lengthAdjust="spacingAndGlyphs"
text-anchor="middle" opacity="0">E2</text>
<g class="stroked-text"><desc>E2</desc>
<path d="M38.4930 50.7143
L38.9164 50.7143
" />
<path d="M39.0978 51.3795
L38.4930 51.3795
" />
<path d="M38.4930 51.3795
L38.4930 50.1095
" />
<path d="M38.4930 50.1095
L39.0978 50.1095
" />
<path d="M39.5816 50.2305
L39.6420 50.1700
" />
<path d="M39.6420 50.1700
L39.7630 50.1095
" />
<path d="M39.7630 50.1095
L40.0654 50.1095
" />
<path d="M40.0654 50.1095
L40.1863 50.1700
" />
<path d="M40.1863 50.1700
L40.2468 50.2305
" />
<path d="M40.2468 50.2305
L40.3073 50.3514
" />
<path d="M40.3073 50.3514
L40.3073 50.4724
" />
<path d="M40.3073 50.4724
L40.2468 50.6538
" />
<path d="M40.2468 50.6538
L39.5211 51.3795
" />
<path d="M39.5211 51.3795
L40.3073 51.3795
" />
</g><text x="39.3700" y="53.9750"
textLength="2.6222" font-size="1.6933" lengthAdjust="spacingAndGlyphs"
text-anchor="middle" opacity="0">10</text>
<g class="stroked-text"><desc>10</desc>
<path d="M39.1281 53.9195
L38.4024 53.9195
" />
<path d="M38.7652 53.9195
L38.7652 52.6495
" />
<path d="M38.7652 52.6495
L38.6443 52.8310
" />
<path d="M38.6443 52.8310
L38.5233 52.9519
" />
<path d="M38.5233 52.9519
L38.4024 53.0124
" />
<path d="M39.9142 52.6495
L40.0352 52.6495
" />
<path d="M40.0352 52.6495
L40.1561 52.7100
" />
<path d="M40.1561 52.7100
L40.2166 52.7705
" />
<path d="M40.2166 52.7705
L40.2771 52.8914
" />
<path d="M40.2771 52.8914
L40.3376 53.1333
" />
<path d="M40.3376 53.1333
L40.3376 53.4357
" />
<path d="M40.3376 53.4357
L40.2771 53.6776
" />
<path d="M40.2771 53.6776
L40.2166 53.7986
" />
<path d="M40.2166 53.7986
L40.1561 53.8591
" />
<path d="M40.1561 53.8591
L40.0352 53.9195
" />
<path d="M40.0352 53.9195
L39.9142 53.9195
" />
<path d="M39.9142 53.9195
L39.7933 53.8591
" />
<path d="M39.7933 53.8591
L39.7328 53.7986
" />
<path d="M39.7328 53.7986
L39.6723 53.6776
" />
<path d="M39.6723 53.6776
L39.6119 53.4357
" />
<path d="M39.6119 53.4357
L39.6119 53.1333
" />
<path d="M39.6119 53.1333
L39.6723 52.8914
" />
<path d="M39.6723 52.8914
L39.7328 52.7705
" />
<path d="M39.7328 52.7705
L39.7933 52.7100
" />
<path d="M39.7933 52.7100
L39.9142 52.6495
" />
</g></g>
</g>
<g style="fill:#000000; fill-opacity:0.0; 
stroke:#000000; stroke-width:0.1524; stroke-opacity:1; 
stroke-linecap:round; stroke-linejoin:round;">
<g >
</g>
<g style="fill:#000000; fill-opacity:0.0; 
stroke:#000000; stroke-width:0.2540; stroke-opacity:1; 
stroke-linecap:round; stroke-linejoin:round;">
<path style="fill:#000000; fill-opacity:0.0; 
stroke:#000000; stroke-width:0.2540; stroke-opacity:1; 
stroke-linecap:round; stroke-linejoin:round;fill:none"
d="M 33.0200,16.5100
22.8600,11.4300
22.8600,21.5900
Z" /> 
<rect x="20.320000" y="11.430000" width="2.540000" height="10.160000" rx="0.000000" />
</g>
<g style="fill:#000000; fill-opacity:0.0; 
stroke:#000000; stroke-width:0.1524; stroke-opacity:1; 
stroke-linecap:round; stroke-linejoin:round;">
<path d="M20.3200 16.5100
L15.2400 16.5100
" />
<path d="M33.0160 16.5100
L35.5600 16.5100
" />
<text x="25.4000" y="5.7150"
textLength="2.6222" font-size="1.6933" lengthAdjust="spacingAndGlyphs"
text-anchor="middle" opacity="0">X2</text>
<g class="stroked-text"><desc>X2</desc>
<path d="M24.3719 4.3895
L25.2185 5.6595
" />
<path d="M25.2185 4.3895
L24.3719 5.6595
" />
<path d="M25.6419 4.5105
L25.7023 4.4500
" />
<path d="M25.7023 4.4500
L25.8233 4.3895
" />
<path d="M25.8233 4.3895
L26.1257 4.3895
" />
<path d="M26.1257 4.3895
L26.2466 4.4500
" />
<path d="M26.2466 4.4500
L26.3071 4.5105
" />
<path d="M26.3071 4.5105
L26.3676 4.6314
" />
<path d="M26.3676 4.6314
L26.3676 4.7524
" />
<path d="M26.3676 4.7524
L26.3071 4.9338
" />
<path d="M26.3071 4.9338
L25.5814 5.6595
" />
<path d="M25.5814 5.6595
L26.3676 5.6595
" />
</g><text x="25.4000" y="8.2550"
textLength="4.3760" font-size="1.6933" lengthAdjust="spacingAndGlyphs"
text-anchor="middle" opacity="0">Gain</text>
<g class="stroked-text"><desc>Gain</desc>
<path d="M24.2812 6.9900
L24.1602 6.9295
" />
<path d="M24.1602 6.9295
L23.9788 6.9295
" />
<path d="M23.9788 6.9295
L23.7974 6.9900
" />
<path d="M23.7974 6.9900
L23.6764 7.1110
" />
<path d="M23.6764 7.1110
L23.6159 7.2319
" />
<path d="M23.6159 7.2319
L23.5555 7.4738
" />
<path d="M23.5555 7.4738
L23.5555 7.6552
" />
<path d="M23.5555 7.6552
L23.6159 7.8971
" />
<path d="M23.6159 7.8971
L23.6764 8.0181
" />
<path d="M23.6764 8.0181
L23.7974 8.1391
" />
<path d="M23.7974 8.1391
L23.9788 8.1995
" />
<path d="M23.9788 8.1995
L24.0997 8.1995
" />
<path d="M24.0997 8.1995
L24.2812 8.1391
" />
<path d="M24.2812 8.1391
L24.3416 8.0786
" />
<path d="M24.3416 8.0786
L24.3416 7.6552
" />
<path d="M24.3416 7.6552
L24.0997 7.6552
" />
<path d="M25.4302 8.1995
L25.4302 7.5343
" />
<path d="M25.4302 7.5343
L25.3697 7.4133
" />
<path d="M25.3697 7.4133
L25.2488 7.3529
" />
<path d="M25.2488 7.3529
L25.0069 7.3529
" />
<path d="M25.0069 7.3529
L24.8859 7.4133
" />
<path d="M25.4302 8.1391
L25.3093 8.1995
" />
<path d="M25.3093 8.1995
L25.0069 8.1995
" />
<path d="M25.0069 8.1995
L24.8859 8.1391
" />
<path d="M24.8859 8.1391
L24.8255 8.0181
" />
<path d="M24.8255 8.0181
L24.8255 7.8971
" />
<path d="M24.8255 7.8971
L24.8859 7.7762
" />
<path d="M24.8859 7.7762
L25.0069 7.7157
" />
<path d="M25.0069 7.7157
L25.3093 7.7157
" />
<path d="M25.3093 7.7157
L25.4302 7.6552
" />
<path d="M26.0349 8.1995
L26.0349 7.3529
" />
<path d="M26.0349 6.9295
L25.9745 6.9900
" />
<path d="M25.9745 6.9900
L26.0349 7.0505
" />
<path d="M26.0349 7.0505
L26.0954 6.9900
" />
<path d="M26.0954 6.9900
L26.0349 6.9295
" />
<path d="M26.0349 6.9295
L26.0349 7.0505
" />
<path d="M26.6397 7.3529
L26.6397 8.1995
" />
<path d="M26.6397 7.4738
L26.7002 7.4133
" />
<path d="M26.7002 7.4133
L26.8212 7.3529
" />
<path d="M26.8212 7.3529
L27.0026 7.3529
" />
<path d="M27.0026 7.3529
L27.1235 7.4133
" />
<path d="M27.1235 7.4133
L27.1840 7.5343
" />
<path d="M27.1840 7.5343
L27.1840 8.1995
" />
</g><text x="25.4000" y="10.7950"
textLength="7.0370" font-size="1.6933" lengthAdjust="spacingAndGlyphs"
text-anchor="middle" opacity="0">k=0.05</text>
<g class="stroked-text"><desc>k=0.05</desc>
<path d="M22.2854 10.7395
L22.2854 9.4695
" />
<path d="M22.4064 10.2557
L22.7692 10.7395
" />
<path d="M22.7692 9.8929
L22.2854 10.3767
" />
<path d="M23.3135 10.0743
L24.2812 10.0743
" />
<path d="M24.2812 10.4371
L23.3135 10.4371
" />
<path d="M25.1278 9.4695
L25.2488 9.4695
" />
<path d="M25.2488 9.4695
L25.3697 9.5300
" />
<path d="M25.3697 9.5300
L25.4302 9.5905
" />
<path d="M25.4302 9.5905
L25.4907 9.7114
" />
<path d="M25.4907 9.7114
L25.5512 9.9533
" />
<path d="M25.5512 9.9533
L25.5512 10.2557
" />
<path d="M25.5512 10.2557
L25.4907 10.4976
" />
<path d="M25.4907 10.4976
L25.4302 10.6186
" />
<path d="M25.4302 10.6186
L25.3697 10.6791
" />
<path d="M25.3697 10.6791
L25.2488 10.7395
" />
<path d="M25.2488 10.7395
L25.1278 10.7395
" />
<path d="M25.1278 10.7395
L25.0069 10.6791
" />
<path d="M25.0069 10.6791
L24.9464 10.6186
" />
<path d="M24.9464 10.6186
L24.8859 10.4976
" />
<path d="M24.8859 10.4976
L24.8255 10.2557
" />
<path d="M24.8255 10.2557
L24.8255 9.9533
" />
<path d="M24.8255 9.9533
L24.8859 9.7114
" />
<path d="M24.8859 9.7114
L24.9464 9.5905
" />
<path d="M24.9464 9.5905
L25.0069 9.5300
" />
<path d="M25.0069 9.5300
L25.1278 9.4695
" />
<path d="M26.0954 10.6186
L26.1559 10.6791
" />
<path d="M26.1559 10.6791
L26.0954 10.7395
" />
<path d="M26.0954 10.7395
L26.0350 10.6791
" />
<path d="M26.0350 10.6791
L26.0954 10.6186
" />
<path d="M26.0954 10.6186
L26.0954 10.7395
" />
<path d="M26.9421 9.4695
L27.0631 9.4695
" />
<path d="M27.0631 9.4695
L27.1840 9.5300
" />
<path d="M27.1840 9.5300
L27.2445 9.5905
" />
<path d="M27.2445 9.5905
L27.3050 9.7114
" />
<path d="M27.3050 9.7114
L27.3655 9.9533
" />
<path d="M27.3655 9.9533
L27.3655 10.2557
" />
<path d="M27.3655 10.2557
L27.3050 10.4976
" />
<path d="M27.3050 10.4976
L27.2445 10.6186
" />
<path d="M27.2445 10.6186
L27.1840 10.6791
" />
<path d="M27.1840 10.6791
L27.0631 10.7395
" />
<path d="M27.0631 10.7395
L26.9421 10.7395
" />
<path d="M26.9421 10.7395
L26.8212 10.6791
" />
<path d="M26.8212 10.6791
L26.7607 10.6186
" />
<path d="M26.7607 10.6186
L26.7002 10.4976
" />
<path d="M26.7002 10.4976
L26.6398 10.2557
" />
<path d="M26.6398 10.2557
L26.6398 9.9533
" />
<path d="M26.6398 9.9533
L26.7002 9.7114
" />
<path d="M26.7002 9.7114
L26.7607 9.5905
" />
<path d="M26.7607 9.5905
L26.8212 9.5300
" />
<path d="M26.8212 9.5300
L26.9421 9.4695
" />
<path d="M28.5145 9.4695
L27.9097 9.4695
" />
<path d="M27.9097 9.4695
L27.8493 10.0743
" />
<path d="M27.8493 10.0743
L27.9097 10.0138
" />
<path d="M27.9097 10.0138
L28.0307 9.9533
" />
<path d="M28.0307 9.9533
L28.3331 9.9533
" />
<path d="M28.3331 9.9533
L28.4540 10.0138
" />
<path d="M28.4540 10.0138
L28.5145 10.0743
" />
<path d="M28.5145 10.0743
L28.5750 10.1952
" />
<path d="M28.5750 10.1952
L28.5750 10.4976
" />
<path d="M28.5750 10.4976
L28.5145 10.6186
" />
<path d="M28.5145 10.6186
L28.4540 10.6791
" />
<path d="M28.4540 10.6791
L28.3331 10.7395
" />
<path d="M28.3331 10.7395
L28.0307 10.7395
" />
<path d="M28.0307 10.7395
L27.9097 10.6791
" />
<path d="M27.9097 10.6791
L27.8493 10.6186
" />
</g></g>
</g>
<g style="fill:#000000; fill-opacity:0.0; 
stroke:#000000; stroke-width:0.1588; stroke-opacity:1; 
stroke-linecap:round; stroke-linejoin:round;">
</g>
<g style="fill:#000000; fill-opacity:0.0; 
stroke:#000000; stroke-width:0.1524; stroke-opacity:1; 
stroke-linecap:round; stroke-linejoin:round;">
<g transform="rotate(-90.000000 30.5708 59.8488)">
<text x="30.5708" y="60.4838"
textLength="4.1341" font-size="1.6933" lengthAdjust="spacingAndGlyphs"
text-anchor="end" opacity="0">com</text>
</g>
<g class="stroked-text"><desc>com</desc>
<path d="M31.0899 63.0332
L31.1503 63.1541
" />
<path d="M31.1503 63.1541
L31.1503 63.3960
" />
<path d="M31.1503 63.3960
L31.0899 63.5170
" />
<path d="M31.0899 63.5170
L31.0294 63.5775
" />
<path d="M31.0294 63.5775
L30.9084 63.6379
" />
<path d="M30.9084 63.6379
L30.5456 63.6379
" />
<path d="M30.5456 63.6379
L30.4246 63.5775
" />
<path d="M30.4246 63.5775
L30.3641 63.5170
" />
<path d="M30.3641 63.5170
L30.3037 63.3960
" />
<path d="M30.3037 63.3960
L30.3037 63.1541
" />
<path d="M30.3037 63.1541
L30.3641 63.0332
" />
<path d="M31.1503 62.3074
L31.0899 62.4284
" />
<path d="M31.0899 62.4284
L31.0294 62.4889
" />
<path d="M31.0294 62.4889
L30.9084 62.5493
" />
<path d="M30.9084 62.5493
L30.5456 62.5493
" />
<path d="M30.5456 62.5493
L30.4246 62.4889
" />
<path d="M30.4246 62.4889
L30.3641 62.4284
" />
<path d="M30.3641 62.4284
L30.3037 62.3074
" />
<path d="M30.3037 62.3074
L30.3037 62.1260
" />
<path d="M30.3037 62.1260
L30.3641 62.0051
" />
<path d="M30.3641 62.0051
L30.4246 61.9446
" />
<path d="M30.4246 61.9446
L30.5456 61.8841
" />
<path d="M30.5456 61.8841
L30.9084 61.8841
" />
<path d="M30.9084 61.8841
L31.0294 61.9446
" />
<path d="M31.0294 61.9446
L31.0899 62.0051
" />
<path d="M31.0899 62.0051
L31.1503 62.1260
" />
<path d="M31.1503 62.1260
L31.1503 62.3074
" />
<path d="M31.1503 61.3399
L30.3037 61.3399
" />
<path d="M30.4246 61.3399
L30.3641 61.2794
" />
<path d="M30.3641 61.2794
L30.3037 61.1584
" />
<path d="M30.3037 61.1584
L30.3037 60.9770
" />
<path d="M30.3037 60.9770
L30.3641 60.8561
" />
<path d="M30.3641 60.8561
L30.4851 60.7956
" />
<path d="M30.4851 60.7956
L31.1503 60.7956
" />
<path d="M30.4851 60.7956
L30.3641 60.7351
" />
<path d="M30.3641 60.7351
L30.3037 60.6142
" />
<path d="M30.3037 60.6142
L30.3037 60.4327
" />
<path d="M30.3037 60.4327
L30.3641 60.3118
" />
<path d="M30.3641 60.3118
L30.4851 60.2513
" />
<path d="M30.4851 60.2513
L31.1503 60.2513
" />
</g><path style="fill:#000000; fill-opacity:0.0; 
stroke:#000000; stroke-width:0.1524; stroke-opacity:1; 
stroke-linecap:round; stroke-linejoin:round;fill:none"
d="M 30.4800,58.4200
29.2096,59.5313
29.2096,64.7963
30.4800,64.7963
31.7504,64.7963
31.7504,59.5313
Z" /> 
</g>
<g style="fill:#000000; fill-opacity:0.0; 
stroke:#000000; stroke-width:0.1588; stroke-opacity:1; 
stroke-linecap:round; stroke-linejoin:round;">
</g>
<g style="fill:#000000; fill-opacity:0.0; 
stroke:#000000; stroke-width:0.1524; stroke-opacity:1; 
stroke-linecap:round; stroke-linejoin:round;">
<g transform="rotate(-90.000000 77.5608 59.8488)">
<text x="77.5608" y="60.4838"
textLength="4.1341" font-size="1.6933" lengthAdjust="spacingAndGlyphs"
text-anchor="end" opacity="0">com</text>
</g>
<g class="stroked-text"><desc>com</desc>
<path d="M78.0799 63.0332
L78.1403 63.1541
" />
<path d="M78.1403 63.1541
L78.1403 63.3960
" />
<path d="M78.1403 63.3960
L78.0799 63.5170
" />
<path d="M78.0799 63.5170
L78.0194 63.5775
" />
<path d="M78.0194 63.5775
L77.8984 63.6379
" />
<path d="M77.8984 63.6379
L77.5356 63.6379
" />
<path d="M77.5356 63.6379
L77.4146 63.5775
" />
<path d="M77.4146 63.5775
L77.3541 63.5170
" />
<path d="M77.3541 63.5170
L77.2937 63.3960
" />
<path d="M77.2937 63.3960
L77.2937 63.1541
" />
<path d="M77.2937 63.1541
L77.3541 63.0332
" />
<path d="M78.1403 62.3074
L78.0799 62.4284
" />
<path d="M78.0799 62.4284
L78.0194 62.4889
" />
<path d="M78.0194 62.4889
L77.8984 62.5493
" />
<path d="M77.8984 62.5493
L77.5356 62.5493
" />
<path d="M77.5356 62.5493
L77.4146 62.4889
" />
<path d="M77.4146 62.4889
L77.3541 62.4284
" />
<path d="M77.3541 62.4284
L77.2937 62.3074
" />
<path d="M77.2937 62.3074
L77.2937 62.1260
" />
<path d="M77.2937 62.1260
L77.3541 62.0051
" />
<path d="M77.3541 62.0051
L77.4146 61.9446
" />
<path d="M77.4146 61.9446
L77.5356 61.8841
" />
<path d="M77.5356 61.8841
L77.8984 61.8841
" />
<path d="M77.8984 61.8841
L78.0194 61.9446
" />
<path d="M78.0194 61.9446
L78.0799 62.0051
" />
<path d="M78.0799 62.0051
L78.1403 62.1260
" />
<path d="M78.1403 62.1260
L78.1403 62.3074
" />
<path d="M78.1403 61.3399
L77.2937 61.3399
" />
<path d="M77.4146 61.3399
L77.3541 61.2794
" />
<path d="M77.3541 61.2794
L77.2937 61.1584
" />
<path d="M77.2937 61.1584
L77.2937 60.9770
" />
<path d="M77.2937 60.9770
L77.3541 60.8561
" />
<path d="M77.3541 60.8561
L77.4751 60.7956
" />
<path d="M77.4751 60.7956
L78.1403 60.7956
" />
<path d="M77.4751 60.7956
L77.3541 60.7351
" />
<path d="M77.3541 60.7351
L77.2937 60.6142
" />
<path d="M77.2937 60.6142
L77.2937 60.4327
" />
<path d="M77.2937 60.4327
L77.3541 60.3118
" />
<path d="M77.3541 60.3118
L77.4751 60.2513
" />
<path d="M77.4751 60.2513
L78.1403 60.2513
" />
</g><path style="fill:#000000; fill-opacity:0.0; 
stroke:#000000; stroke-width:0.1524; stroke-opacity:1; 
stroke-linecap:round; stroke-linejoin:round;fill:none"
d="M 77.4700,58.4200
76.1996,59.5313
76.1996,64.7963
77.4700,64.7963
78.7404,64.7963
78.7404,59.5313
Z" /> 
</g>
<g style="fill:#000000; fill-opacity:0.0; 
stroke:#000000; stroke-width:0.1588; stroke-opacity:1; 
stroke-linecap:round; stroke-linejoin:round;">
</g>
<g style="fill:#000000; fill-opacity:0.0; 
stroke:#000000; stroke-width:0.1524; stroke-opacity:1; 
stroke-linecap:round; stroke-linejoin:round;">
<text x="64.9288" y="42.6358"
textLength="3.7713" font-size="1.6933" lengthAdjust="spacingAndGlyphs"
text-anchor="start" opacity="0">vref</text>
<g class="stroked-text"><desc>vref</desc>
<path d="M65.2104 41.7337
L65.5128 42.5803
" />
<path d="M65.5128 42.5803
L65.8151 41.7337
" />
<path d="M66.2989 42.5803
L66.2989 41.7337
" />
<path d="M66.2989 41.9756
L66.3594 41.8546
" />
<path d="M66.3594 41.8546
L66.4199 41.7941
" />
<path d="M66.4199 41.7941
L66.5408 41.7337
" />
<path d="M66.5408 41.7337
L66.6618 41.7337
" />
<path d="M67.5689 42.5199
L67.4480 42.5803
" />
<path d="M67.4480 42.5803
L67.2061 42.5803
" />
<path d="M67.2061 42.5803
L67.0851 42.5199
" />
<path d="M67.0851 42.5199
L67.0247 42.3989
" />
<path d="M67.0247 42.3989
L67.0247 41.9151
" />
<path d="M67.0247 41.9151
L67.0851 41.7941
" />
<path d="M67.0851 41.7941
L67.2061 41.7337
" />
<path d="M67.2061 41.7337
L67.4480 41.7337
" />
<path d="M67.4480 41.7337
L67.5689 41.7941
" />
<path d="M67.5689 41.7941
L67.6294 41.9151
" />
<path d="M67.6294 41.9151
L67.6294 42.0360
" />
<path d="M67.6294 42.0360
L67.0247 42.1570
" />
<path d="M67.9923 41.7337
L68.4761 41.7337
" />
<path d="M68.1737 42.5803
L68.1737 41.4918
" />
<path d="M68.1737 41.4918
L68.2342 41.3708
" />
<path d="M68.2342 41.3708
L68.3552 41.3103
" />
<path d="M68.3552 41.3103
L68.4761 41.3103
" />
</g><path style="fill:#000000; fill-opacity:0.0; 
stroke:#000000; stroke-width:0.1524; stroke-opacity:1; 
stroke-linecap:round; stroke-linejoin:round;fill:none"
d="M 63.5000,41.9100
64.6113,43.1804
69.5135,43.1804
69.5135,41.9100
69.5135,40.6396
64.6113,40.6396
Z" /> 
</g>
<g style="fill:#000000; fill-opacity:0.0; 
stroke:#000000; stroke-width:0.1588; stroke-opacity:1; 
stroke-linecap:round; stroke-linejoin:round;">
</g>
<g style="fill:#000000; fill-opacity:0.0; 
stroke:#000000; stroke-width:0.1524; stroke-opacity:1; 
stroke-linecap:round; stroke-linejoin:round;">
<g transform="rotate(-90.000000 48.3508 59.8488)">
<text x="48.3508" y="60.4838"
textLength="4.1341" font-size="1.6933" lengthAdjust="spacingAndGlyphs"
text-anchor="end" opacity="0">com</text>
</g>
<g class="stroked-text"><desc>com</desc>
<path d="M48.8699 63.0332
L48.9303 63.1541
" />
<path d="M48.9303 63.1541
L48.9303 63.3960
" />
<path d="M48.9303 63.3960
L48.8699 63.5170
" />
<path d="M48.8699 63.5170
L48.8094 63.5775
" />
<path d="M48.8094 63.5775
L48.6884 63.6379
" />
<path d="M48.6884 63.6379
L48.3256 63.6379
" />
<path d="M48.3256 63.6379
L48.2046 63.5775
" />
<path d="M48.2046 63.5775
L48.1441 63.5170
" />
<path d="M48.1441 63.5170
L48.0837 63.3960
" />
<path d="M48.0837 63.3960
L48.0837 63.1541
" />
<path d="M48.0837 63.1541
L48.1441 63.0332
" />
<path d="M48.9303 62.3074
L48.8699 62.4284
" />
<path d="M48.8699 62.4284
L48.8094 62.4889
" />
<path d="M48.8094 62.4889
L48.6884 62.5493
" />
<path d="M48.6884 62.5493
L48.3256 62.5493
" />
<path d="M48.3256 62.5493
L48.2046 62.4889
" />
<path d="M48.2046 62.4889
L48.1441 62.4284
" />
<path d="M48.1441 62.4284
L48.0837 62.3074
" />
<path d="M48.0837 62.3074
L48.0837 62.1260
" />
<path d="M48.0837 62.1260
L48.1441 62.0051
" />
<path d="M48.1441 62.0051
L48.2046 61.9446
" />
<path d="M48.2046 61.9446
L48.3256 61.8841
" />
<path d="M48.3256 61.8841
L48.6884 61.8841
" />
<path d="M48.6884 61.8841
L48.8094 61.9446
" />
<path d="M48.8094 61.9446
L48.8699 62.0051
" />
<path d="M48.8699 62.0051
L48.9303 62.1260
" />
<path d="M48.9303 62.1260
L48.9303 62.3074
" />
<path d="M48.9303 61.3399
L48.0837 61.3399
" />
<path d="M48.2046 61.3399
L48.1441 61.2794
" />
<path d="M48.1441 61.2794
L48.0837 61.1584
" />
<path d="M48.0837 61.1584
L48.0837 60.9770
" />
<path d="M48.0837 60.9770
L48.1441 60.8561
" />
<path d="M48.1441 60.8561
L48.2651 60.7956
" />
<path d="M48.2651 60.7956
L48.9303 60.7956
" />
<path d="M48.2651 60.7956
L48.1441 60.7351
" />
<path d="M48.1441 60.7351
L48.0837 60.6142
" />
<path d="M48.0837 60.6142
L48.0837 60.4327
" />
<path d="M48.0837 60.4327
L48.1441 60.3118
" />
<path d="M48.1441 60.3118
L48.2651 60.2513
" />
<path d="M48.2651 60.2513
L48.9303 60.2513
" />
</g><path style="fill:#000000; fill-opacity:0.0; 
stroke:#000000; stroke-width:0.1524; stroke-opacity:1; 
stroke-linecap:round; stroke-linejoin:round;fill:none"
d="M 48.2600,58.4200
46.9896,59.5313
46.9896,64.7963
48.2600,64.7963
49.5304,64.7963
49.5304,59.5313
Z" /> 
</g>
<g style="fill:#000000; fill-opacity:0.0; 
stroke:#000000; stroke-width:0.1588; stroke-opacity:1; 
stroke-linecap:round; stroke-linejoin:round;">
</g>
<g style="fill:#000000; fill-opacity:0.0; 
stroke:#000000; stroke-width:0.1524; stroke-opacity:1; 
stroke-linecap:round; stroke-linejoin:round;">
<text x="12.5412" y="17.2358"
textLength="1.9570" font-size="1.6933" lengthAdjust="spacingAndGlyphs"
text-anchor="end" opacity="0">in</text>
<g class="stroked-text"><desc>in</desc>
<path d="M10.9895 17.1803
L10.9895 16.3337
" />
<path d="M10.9895 15.9103
L10.9291 15.9708
" />
<path d="M10.9291 15.9708
L10.9895 16.0313
" />
<path d="M10.9895 16.0313
L11.0500 15.9708
" />
<path d="M11.0500 15.9708
L10.9895 15.9103
" />
<path d="M10.9895 15.9103
L10.9895 16.0313
" />
<path d="M11.5943 16.3337
L11.5943 17.1803
" />
<path d="M11.5943 16.4546
L11.6548 16.3941
" />
<path d="M11.6548 16.3941
L11.7758 16.3337
" />
<path d="M11.7758 16.3337
L11.9572 16.3337
" />
<path d="M11.9572 16.3337
L12.0781 16.3941
" />
<path d="M12.0781 16.3941
L12.1386 16.5151
" />
<path d="M12.1386 16.5151
L12.1386 17.1803
" />
</g><path style="fill:#000000; fill-opacity:0.0; 
stroke:#000000; stroke-width:0.1524; stroke-opacity:1; 
stroke-linecap:round; stroke-linejoin:round;fill:none"
d="M 13.9700,16.5100
12.8587,15.2396
9.7708,15.2396
9.7708,16.5100
9.7708,17.7804
12.8587,17.7804
Z" /> 
</g>
<g style="fill:#000000; fill-opacity:0.0; 
stroke:#000000; stroke-width:0.1588; stroke-opacity:1; 
stroke-linecap:round; stroke-linejoin:round;">
</g>
<g style="fill:#000000; fill-opacity:0.0; 
stroke:#000000; stroke-width:0.1524; stroke-opacity:1; 
stroke-linecap:round; stroke-linejoin:round;">
<text x="85.2488" y="19.7758"
textLength="3.2269" font-size="1.6933" lengthAdjust="spacingAndGlyphs"
text-anchor="start" opacity="0">out</text>
<g class="stroked-text"><desc>out</desc>
<path d="M85.8328 19.7203
L85.7118 19.6599
" />
<path d="M85.7118 19.6599
L85.6513 19.5994
" />
<path d="M85.6513 19.5994
L85.5909 19.4784
" />
<path d="M85.5909 19.4784
L85.5909 19.1156
" />
<path d="M85.5909 19.1156
L85.6513 18.9946
" />
<path d="M85.6513 18.9946
L85.7118 18.9341
" />
<path d="M85.7118 18.9341
L85.8328 18.8737
" />
<path d="M85.8328 18.8737
L86.0142 18.8737
" />
<path d="M86.0142 18.8737
L86.1351 18.9341
" />
<path d="M86.1351 18.9341
L86.1956 18.9946
" />
<path d="M86.1956 18.9946
L86.2561 19.1156
" />
<path d="M86.2561 19.1156
L86.2561 19.4784
" />
<path d="M86.2561 19.4784
L86.1956 19.5994
" />
<path d="M86.1956 19.5994
L86.1351 19.6599
" />
<path d="M86.1351 19.6599
L86.0142 19.7203
" />
<path d="M86.0142 19.7203
L85.8328 19.7203
" />
<path d="M87.3446 18.8737
L87.3446 19.7203
" />
<path d="M86.8003 18.8737
L86.8003 19.5389
" />
<path d="M86.8003 19.5389
L86.8608 19.6599
" />
<path d="M86.8608 19.6599
L86.9818 19.7203
" />
<path d="M86.9818 19.7203
L87.1632 19.7203
" />
<path d="M87.1632 19.7203
L87.2841 19.6599
" />
<path d="M87.2841 19.6599
L87.3446 19.5994
" />
<path d="M87.7679 18.8737
L88.2517 18.8737
" />
<path d="M87.9493 18.4503
L87.9493 19.5389
" />
<path d="M87.9493 19.5389
L88.0098 19.6599
" />
<path d="M88.0098 19.6599
L88.1308 19.7203
" />
<path d="M88.1308 19.7203
L88.2517 19.7203
" />
</g><path style="fill:#000000; fill-opacity:0.0; 
stroke:#000000; stroke-width:0.1524; stroke-opacity:1; 
stroke-linecap:round; stroke-linejoin:round;fill:none"
d="M 83.8200,19.0500
84.9313,20.3204
89.2891,20.3204
89.2891,19.0500
89.2891,17.7796
84.9313,17.7796
Z" /> 
</g>
<g style="fill:#000000; fill-opacity:0.0; 
stroke:#000000; stroke-width:0.1588; stroke-opacity:1; 
stroke-linecap:round; stroke-linejoin:round;">
</g>
<g style="fill:#000000; fill-opacity:0.0; 
stroke:#000000; stroke-width:0.1524; stroke-opacity:1; 
stroke-linecap:round; stroke-linejoin:round;">
<text x="39.3700" y="16.1607"
textLength="4.2550" font-size="1.6933" lengthAdjust="spacingAndGlyphs"
text-anchor="start" opacity="0">gain</text>
<g class="stroked-text"><desc>gain</desc>
<path d="M40.3168 15.1506
L40.3168 16.1787
" />
<path d="M40.3168 16.1787
L40.2563 16.2996
" />
<path d="M40.2563 16.2996
L40.1959 16.3601
" />
<path d="M40.1959 16.3601
L40.0749 16.4206
" />
<path d="M40.0749 16.4206
L39.8935 16.4206
" />
<path d="M39.8935 16.4206
L39.7725 16.3601
" />
<path d="M40.3168 15.9368
L40.1959 15.9972
" />
<path d="M40.1959 15.9972
L39.9540 15.9972
" />
<path d="M39.9540 15.9972
L39.8330 15.9368
" />
<path d="M39.8330 15.9368
L39.7725 15.8763
" />
<path d="M39.7725 15.8763
L39.7121 15.7553
" />
<path d="M39.7121 15.7553
L39.7121 15.3925
" />
<path d="M39.7121 15.3925
L39.7725 15.2715
" />
<path d="M39.7725 15.2715
L39.8330 15.2110
" />
<path d="M39.8330 15.2110
L39.9540 15.1506
" />
<path d="M39.9540 15.1506
L40.1959 15.1506
" />
<path d="M40.1959 15.1506
L40.3168 15.2110
" />
<path d="M41.4658 15.9972
L41.4658 15.3320
" />
<path d="M41.4658 15.3320
L41.4053 15.2110
" />
<path d="M41.4053 15.2110
L41.2844 15.1506
" />
<path d="M41.2844 15.1506
L41.0425 15.1506
" />
<path d="M41.0425 15.1506
L40.9215 15.2110
" />
<path d="M41.4658 15.9368
L41.3449 15.9972
" />
<path d="M41.3449 15.9972
L41.0425 15.9972
" />
<path d="M41.0425 15.9972
L40.9215 15.9368
" />
<path d="M40.9215 15.9368
L40.8611 15.8158
" />
<path d="M40.8611 15.8158
L40.8611 15.6948
" />
<path d="M40.8611 15.6948
L40.9215 15.5739
" />
<path d="M40.9215 15.5739
L41.0425 15.5134
" />
<path d="M41.0425 15.5134
L41.3449 15.5134
" />
<path d="M41.3449 15.5134
L41.4658 15.4529
" />
<path d="M42.0705 15.9972
L42.0705 15.1506
" />
<path d="M42.0705 14.7272
L42.0101 14.7877
" />
<path d="M42.0101 14.7877
L42.0705 14.8482
" />
<path d="M42.0705 14.8482
L42.1310 14.7877
" />
<path d="M42.1310 14.7877
L42.0705 14.7272
" />
<path d="M42.0705 14.7272
L42.0705 14.8482
" />
<path d="M42.6753 15.1506
L42.6753 15.9972
" />
<path d="M42.6753 15.2715
L42.7358 15.2110
" />
<path d="M42.7358 15.2110
L42.8568 15.1506
" />
<path d="M42.8568 15.1506
L43.0382 15.1506
" />
<path d="M43.0382 15.1506
L43.1591 15.2110
" />
<path d="M43.1591 15.2110
L43.2196 15.3320
" />
<path d="M43.2196 15.3320
L43.2196 15.9972
" />
</g></g>
<g style="fill:#000000; fill-opacity:0.0; 
stroke:#000000; stroke-width:0.1588; stroke-opacity:1; 
stroke-linecap:round; stroke-linejoin:round;">
</g>
<g style="fill:#000000; fill-opacity:0.0; 
stroke:#000000; stroke-width:0.1524; stroke-opacity:1; 
stroke-linecap:round; stroke-linejoin:round;">
<text x="64.7700" y="18.7007"
textLength="4.0736" font-size="1.6933" lengthAdjust="spacingAndGlyphs"
text-anchor="start" opacity="0">sum</text>
<g class="stroked-text"><desc>sum</desc>
<path d="M65.1121 18.4768
L65.2330 18.5372
" />
<path d="M65.2330 18.5372
L65.4749 18.5372
" />
<path d="M65.4749 18.5372
L65.5959 18.4768
" />
<path d="M65.5959 18.4768
L65.6563 18.3558
" />
<path d="M65.6563 18.3558
L65.6563 18.2953
" />
<path d="M65.6563 18.2953
L65.5959 18.1744
" />
<path d="M65.5959 18.1744
L65.4749 18.1139
" />
<path d="M65.4749 18.1139
L65.2935 18.1139
" />
<path d="M65.2935 18.1139
L65.1725 18.0534
" />
<path d="M65.1725 18.0534
L65.1121 17.9325
" />
<path d="M65.1121 17.9325
L65.1121 17.8720
" />
<path d="M65.1121 17.8720
L65.1725 17.7510
" />
<path d="M65.1725 17.7510
L65.2935 17.6906
" />
<path d="M65.2935 17.6906
L65.4749 17.6906
" />
<path d="M65.4749 17.6906
L65.5959 17.7510
" />
<path d="M66.7449 17.6906
L66.7449 18.5372
" />
<path d="M66.2006 17.6906
L66.2006 18.3558
" />
<path d="M66.2006 18.3558
L66.2611 18.4768
" />
<path d="M66.2611 18.4768
L66.3821 18.5372
" />
<path d="M66.3821 18.5372
L66.5635 18.5372
" />
<path d="M66.5635 18.5372
L66.6844 18.4768
" />
<path d="M66.6844 18.4768
L66.7449 18.4163
" />
<path d="M67.3496 18.5372
L67.3496 17.6906
" />
<path d="M67.3496 17.8115
L67.4101 17.7510
" />
<path d="M67.4101 17.7510
L67.5311 17.6906
" />
<path d="M67.5311 17.6906
L67.7125 17.6906
" />
<path d="M67.7125 17.6906
L67.8334 17.7510
" />
<path d="M67.8334 17.7510
L67.8939 17.8720
" />
<path d="M67.8939 17.8720
L67.8939 18.5372
" />
<path d="M67.8939 17.8720
L67.9544 17.7510
" />
<path d="M67.9544 17.7510
L68.0753 17.6906
" />
<path d="M68.0753 17.6906
L68.2568 17.6906
" />
<path d="M68.2568 17.6906
L68.3777 17.7510
" />
<path d="M68.3777 17.7510
L68.4382 17.8720
" />
<path d="M68.4382 17.8720
L68.4382 18.5372
" />
</g></g>
<g style="fill:#000000; fill-opacity:0.0; 
stroke:#000000; stroke-width:0.1588; stroke-opacity:1; 
stroke-linecap:round; stroke-linejoin:round;">
</g>
<g style="fill:#000000; fill-opacity:0.0; 
stroke:#000000; stroke-width:0.1524; stroke-opacity:1; 
stroke-linecap:round; stroke-linejoin:round;">
<text x="59.6900" y="33.9407"
textLength="2.0780" font-size="1.6933" lengthAdjust="spacingAndGlyphs"
text-anchor="start" opacity="0">rc</text>
<g class="stroked-text"><desc>rc</desc>
<path d="M60.0925 33.7772
L60.0925 32.9306
" />
<path d="M60.0925 33.1725
L60.1530 33.0515
" />
<path d="M60.1530 33.0515
L60.2135 32.9910
" />
<path d="M60.2135 32.9910
L60.3344 32.9306
" />
<path d="M60.3344 32.9306
L60.4554 32.9306
" />
<path d="M61.4230 33.7168
L61.3021 33.7772
" />
<path d="M61.3021 33.7772
L61.0602 33.7772
" />
<path d="M61.0602 33.7772
L60.9392 33.7168
" />
<path d="M60.9392 33.7168
L60.8787 33.6563
" />
<path d="M60.8787 33.6563
L60.8183 33.5353
" />
<path d="M60.8183 33.5353
L60.8183 33.1725
" />
<path d="M60.8183 33.1725
L60.8787 33.0515
" />
<path d="M60.8787 33.0515
L60.9392 32.9910
" />
<path d="M60.9392 32.9910
L61.0602 32.9306
" />
<path d="M61.0602 32.9306
L61.3021 32.9306
" />
<path d="M61.3021 32.9306
L61.4230 32.9910
" />
</g></g>
<g style="fill:#000000; fill-opacity:0.0; 
stroke:#000000; stroke-width:0.1588; stroke-opacity:1; 
stroke-linecap:round; stroke-linejoin:round;">
</g>
<g style="fill:#000000; fill-opacity:0.0; 
stroke:#000000; stroke-width:0.1524; stroke-opacity:1; 
stroke-linecap:round; stroke-linejoin:round;">
<text x="46.9900" y="39.0207"
textLength="4.3155" font-size="1.6933" lengthAdjust="spacingAndGlyphs"
text-anchor="start" opacity="0">beta</text>
<g class="stroked-text"><desc>beta</desc>
<path d="M47.3925 38.8572
L47.3925 37.5872
" />
<path d="M47.3925 38.0710
L47.5135 38.0106
" />
<path d="M47.5135 38.0106
L47.7554 38.0106
" />
<path d="M47.7554 38.0106
L47.8763 38.0710
" />
<path d="M47.8763 38.0710
L47.9368 38.1315
" />
<path d="M47.9368 38.1315
L47.9973 38.2525
" />
<path d="M47.9973 38.2525
L47.9973 38.6153
" />
<path d="M47.9973 38.6153
L47.9368 38.7363
" />
<path d="M47.9368 38.7363
L47.8763 38.7968
" />
<path d="M47.8763 38.7968
L47.7554 38.8572
" />
<path d="M47.7554 38.8572
L47.5135 38.8572
" />
<path d="M47.5135 38.8572
L47.3925 38.7968
" />
<path d="M49.0253 38.7968
L48.9044 38.8572
" />
<path d="M48.9044 38.8572
L48.6625 38.8572
" />
<path d="M48.6625 38.8572
L48.5415 38.7968
" />
<path d="M48.5415 38.7968
L48.4811 38.6758
" />
<path d="M48.4811 38.6758
L48.4811 38.1920
" />
<path d="M48.4811 38.1920
L48.5415 38.0710
" />
<path d="M48.5415 38.0710
L48.6625 38.0106
" />
<path d="M48.6625 38.0106
L48.9044 38.0106
" />
<path d="M48.9044 38.0106
L49.0253 38.0710
" />
<path d="M49.0253 38.0710
L49.0858 38.1920
" />
<path d="M49.0858 38.1920
L49.0858 38.3129
" />
<path d="M49.0858 38.3129
L48.4811 38.4339
" />
<path d="M49.4487 38.0106
L49.9325 38.0106
" />
<path d="M49.6301 37.5872
L49.6301 38.6758
" />
<path d="M49.6301 38.6758
L49.6906 38.7968
" />
<path d="M49.6906 38.7968
L49.8116 38.8572
" />
<path d="M49.8116 38.8572
L49.9325 38.8572
" />
<path d="M50.9001 38.8572
L50.9001 38.1920
" />
<path d="M50.9001 38.1920
L50.8396 38.0710
" />
<path d="M50.8396 38.0710
L50.7187 38.0106
" />
<path d="M50.7187 38.0106
L50.4768 38.0106
" />
<path d="M50.4768 38.0106
L50.3558 38.0710
" />
<path d="M50.9001 38.7968
L50.7792 38.8572
" />
<path d="M50.7792 38.8572
L50.4768 38.8572
" />
<path d="M50.4768 38.8572
L50.3558 38.7968
" />
<path d="M50.3558 38.7968
L50.2954 38.6758
" />
<path d="M50.2954 38.6758
L50.2954 38.5548
" />
<path d="M50.2954 38.5548
L50.3558 38.4339
" />
<path d="M50.3558 38.4339
L50.4768 38.3734
" />
<path d="M50.4768 38.3734
L50.7792 38.3734
" />
<path d="M50.7792 38.3734
L50.9001 38.3129
" />
</g></g>
<g style="fill:#000000; fill-opacity:0.0; 
stroke:#000000; stroke-width:0.1588; stroke-opacity:1; 
stroke-linecap:round; stroke-linejoin:round;">
</g>
<g style="fill:#000000; fill-opacity:0.0; 
stroke:#000000; stroke-width:0.1524; stroke-opacity:1; 
stroke-linecap:round; stroke-linejoin:round;">
<text x="30.4800" y="21.2407"
textLength="1.3522" font-size="1.6933" lengthAdjust="spacingAndGlyphs"
text-anchor="start" opacity="0">g</text>
<g class="stroked-text"><desc>g</desc>
<path d="M31.4268 20.2306
L31.4268 21.2587
" />
<path d="M31.4268 21.2587
L31.3663 21.3796
" />
<path d="M31.3663 21.3796
L31.3059 21.4401
" />
<path d="M31.3059 21.4401
L31.1849 21.5006
" />
<path d="M31.1849 21.5006
L31.0035 21.5006
" />
<path d="M31.0035 21.5006
L30.8825 21.4401
" />
<path d="M31.4268 21.0168
L31.3059 21.0772
" />
<path d="M31.3059 21.0772
L31.0640 21.0772
" />
<path d="M31.0640 21.0772
L30.9430 21.0168
" />
<path d="M30.9430 21.0168
L30.8825 20.9563
" />
<path d="M30.8825 20.9563
L30.8221 20.8353
" />
<path d="M30.8221 20.8353
L30.8221 20.4725
" />
<path d="M30.8221 20.4725
L30.8825 20.3515
" />
<path d="M30.8825 20.3515
L30.9430 20.2910
" />
<path d="M30.9430 20.2910
L31.0640 20.2306
" />
<path d="M31.0640 20.2306
L31.3059 20.2306
" />
<path d="M31.3059 20.2306
L31.4268 20.2910
" />
</g></g>
<g style="fill:#000000; fill-opacity:0.0; 
stroke:#000000; stroke-width:0.1588; stroke-opacity:1; 
stroke-linecap:round; stroke-linejoin:round;">
</g>
<g style="fill:#000000; fill-opacity:0.0; 
stroke:#000000; stroke-width:0.1524; stroke-opacity:1; 
stroke-linecap:round; stroke-linejoin:round;">
<text x="77.4700" y="46.6407"
textLength="2.9246" font-size="1.6933" lengthAdjust="spacingAndGlyphs"
text-anchor="start" opacity="0">div</text>
<g class="stroked-text"><desc>div</desc>
<path d="M78.4168 46.4772
L78.4168 45.2072
" />
<path d="M78.4168 46.4168
L78.2959 46.4772
" />
<path d="M78.2959 46.4772
L78.0540 46.4772
" />
<path d="M78.0540 46.4772
L77.9330 46.4168
" />
<path d="M77.9330 46.4168
L77.8725 46.3563
" />
<path d="M77.8725 46.3563
L77.8121 46.2353
" />
<path d="M77.8121 46.2353
L77.8121 45.8725
" />
<path d="M77.8121 45.8725
L77.8725 45.7515
" />
<path d="M77.8725 45.7515
L77.9330 45.6910
" />
<path d="M77.9330 45.6910
L78.0540 45.6306
" />
<path d="M78.0540 45.6306
L78.2959 45.6306
" />
<path d="M78.2959 45.6306
L78.4168 45.6910
" />
<path d="M79.0215 46.4772
L79.0215 45.6306
" />
<path d="M79.0215 45.2072
L78.9611 45.2677
" />
<path d="M78.9611 45.2677
L79.0215 45.3282
" />
<path d="M79.0215 45.3282
L79.0820 45.2677
" />
<path d="M79.0820 45.2677
L79.0215 45.2072
" />
<path d="M79.0215 45.2072
L79.0215 45.3282
" />
<path d="M79.5054 45.6306
L79.8078 46.4772
" />
<path d="M79.8078 46.4772
L80.1101 45.6306
" />
</g><path d="M62.2300 46.9900
L72.3900 46.9900
" />
<path d="M72.3900 34.2900
L72.3900 46.9900
" />
<path d="M62.2300 41.9100
L63.5000 41.9100
" />
<path d="M48.2600 58.4200
L48.2600 46.9900
" />
<path d="M77.4700 49.5300
L77.4700 46.9900
" />
<path d="M76.2000 19.0500
L77.4700 19.0500
" />
<path d="M48.2600 46.9900
L49.5300 46.9900
" />
<path d="M49.5300 41.9100
L46.9900 41.9100
" />
<path d="M44.4500 46.9900
L48.2600 46.9900
" />
<path d="M55.8800 34.2900
L63.5000 34.2900
" />
<path d="M30.4800 46.9900
L31.7500 46.9900
" />
<path d="M30.4800 41.9100
L31.7500 41.9100
" />
<path d="M30.4800 58.4200
L30.4800 46.9900
" />
<path d="M77.4700 57.1500
L77.4700 58.4200
" />
<path d="M77.4700 46.9900
L72.3900 46.9900
" />
<path d="M77.4700 19.0500
L83.8200 19.0500
" />
<path d="M46.9900 34.2900
L48.2600 34.2900
" />
<path d="M46.9900 34.2900
L46.9900 41.9100
" />
<path d="M30.4800 21.5900
L30.4800 41.9100
" />
<path d="M44.4500 41.9100
L46.9900 41.9100
" />
<path d="M77.4700 43.1800
L77.4700 46.9900
" />
<path d="M13.9700 16.5100
L15.2400 16.5100
" />
<path d="M30.4800 21.5900
L44.4500 21.5900
" />
<path d="M64.7700 19.0500
L68.5800 19.0500
" />
<path d="M68.5800 34.2900
L72.3900 34.2900
" />
<path d="M77.4700 19.0500
L77.4700 35.5600
" />
<path d="M35.5600 16.5100
L44.4500 16.5100
" />
</g>
<g style="fill:#000000; fill-opacity:1.0000; 
stroke:#000000; stroke-width:0.1524; stroke-opacity:1; 
stroke-linecap:round; stroke-linejoin:round;">
<circle cx="72.3900" cy="46.9900" r="0.4572" /> 
<circle cx="77.4700" cy="46.9900" r="0.4572" /> 
<circle cx="77.4700" cy="19.0500" r="0.4572" /> 
<circle cx="48.2600" cy="46.9900" r="0.4572" /> 
<circle cx="46.9900" cy="41.9100" r="0.4572" /> 
</g> 
</svg>
